<svg xmlns="http://www.w3.org/2000/svg" xmlns:xlink="http://www.w3.org/1999/xlink" zoomAndPan="magnify" viewBox="0 0 560 576" preserveAspectRatio="xMidYMid meet" version="1.0"><defs><clipPath id="0b5512a268"><path d="M 0 0.140625 L 1024 0.140625 L 1024 575.859375 L 0 575.859375 Z M 0 0.140625 " clip-rule="nonzero"/></clipPath><clipPath id="c73becb851"><path d="M 202 391 L 215 391 L 215 403 L 202 403 Z M 202 391 " clip-rule="nonzero"/></clipPath><clipPath id="62709fe259"><path d="M 277.570312 575.855469 L 18.3125 398.539062 L 290.847656 0.0585938 L 550.105469 177.378906 Z M 277.570312 575.855469 " clip-rule="nonzero"/></clipPath><clipPath id="5ef76f31a9"><path d="M 277.570312 575.855469 L 18.3125 398.539062 L 290.847656 0.0585938 L 550.105469 177.378906 Z M 277.570312 575.855469 " clip-rule="nonzero"/></clipPath><clipPath id="75b16029f0"><path d="M 202 390 L 216 390 L 216 404 L 202 404 Z M 202 390 " clip-rule="nonzero"/></clipPath><clipPath id="e6c07239a2"><path d="M 277.570312 575.855469 L 18.3125 398.539062 L 290.847656 0.0585938 L 550.105469 177.378906 Z M 277.570312 575.855469 " clip-rule="nonzero"/></clipPath><clipPath id="af0793810c"><path d="M 277.570312 575.855469 L 18.3125 398.539062 L 290.847656 0.0585938 L 550.105469 177.378906 Z M 277.570312 575.855469 " clip-rule="nonzero"/></clipPath><clipPath id="81805cc212"><path d="M 312 215 L 328 215 L 328 231 L 312 231 Z M 312 215 " clip-rule="nonzero"/></clipPath><clipPath id="4b14ec3e05"><path d="M 277.570312 575.855469 L 18.3125 398.539062 L 290.847656 0.0585938 L 550.105469 177.378906 Z M 277.570312 575.855469 " clip-rule="nonzero"/></clipPath><clipPath id="965ce310ff"><path d="M 277.570312 575.855469 L 18.3125 398.539062 L 290.847656 0.0585938 L 550.105469 177.378906 Z M 277.570312 575.855469 " clip-rule="nonzero"/></clipPath><clipPath id="9f9095db89"><path d="M 311 214 L 329 214 L 329 232 L 311 232 Z M 311 214 " clip-rule="nonzero"/></clipPath><clipPath id="8fc58f1c71"><path d="M 277.570312 575.855469 L 18.3125 398.539062 L 290.847656 0.0585938 L 550.105469 177.378906 Z M 277.570312 575.855469 " clip-rule="nonzero"/></clipPath><clipPath id="3f957ae832"><path d="M 277.570312 575.855469 L 18.3125 398.539062 L 290.847656 0.0585938 L 550.105469 177.378906 Z M 277.570312 575.855469 " clip-rule="nonzero"/></clipPath><clipPath id="91ac33e8d2"><path d="M 282 228 L 297 228 L 297 244 L 282 244 Z M 282 228 " clip-rule="nonzero"/></clipPath><clipPath id="f3776f1a3b"><path d="M 277.570312 575.855469 L 18.3125 398.539062 L 290.847656 0.0585938 L 550.105469 177.378906 Z M 277.570312 575.855469 " clip-rule="nonzero"/></clipPath><clipPath id="7d87da7feb"><path d="M 277.570312 575.855469 L 18.3125 398.539062 L 290.847656 0.0585938 L 550.105469 177.378906 Z M 277.570312 575.855469 " clip-rule="nonzero"/></clipPath><clipPath id="1ae3e46b02"><path d="M 280 227 L 298 227 L 298 245 L 280 245 Z M 280 227 " clip-rule="nonzero"/></clipPath><clipPath id="3ae409e052"><path d="M 277.570312 575.855469 L 18.3125 398.539062 L 290.847656 0.0585938 L 550.105469 177.378906 Z M 277.570312 575.855469 " clip-rule="nonzero"/></clipPath><clipPath id="0a077a8817"><path d="M 277.570312 575.855469 L 18.3125 398.539062 L 290.847656 0.0585938 L 550.105469 177.378906 Z M 277.570312 575.855469 " clip-rule="nonzero"/></clipPath><clipPath id="f2497bb19c"><path d="M 171 96 L 436 96 L 436 373 L 171 373 Z M 171 96 " clip-rule="nonzero"/></clipPath><clipPath id="108cc2066e"><path d="M 277.570312 575.855469 L 18.3125 398.539062 L 290.847656 0.0585938 L 550.105469 177.378906 Z M 277.570312 575.855469 " clip-rule="nonzero"/></clipPath><clipPath id="0f618a2566"><path d="M 277.570312 575.855469 L 18.3125 398.539062 L 290.847656 0.0585938 L 550.105469 177.378906 Z M 277.570312 575.855469 " clip-rule="nonzero"/></clipPath><clipPath id="bdfdc61be5"><path d="M 167 234 L 296 234 L 296 307 L 167 307 Z M 167 234 " clip-rule="nonzero"/></clipPath><clipPath id="0569d2cc0a"><path d="M 277.570312 575.855469 L 18.3125 398.539062 L 290.847656 0.0585938 L 550.105469 177.378906 Z M 277.570312 575.855469 " clip-rule="nonzero"/></clipPath><clipPath id="014666e64d"><path d="M 277.570312 575.855469 L 18.3125 398.539062 L 290.847656 0.0585938 L 550.105469 177.378906 Z M 277.570312 575.855469 " clip-rule="nonzero"/></clipPath><clipPath id="494ec4d311"><path d="M 165 232 L 298 232 L 298 310 L 165 310 Z M 165 232 " clip-rule="nonzero"/></clipPath><clipPath id="e9ee63d203"><path d="M 277.570312 575.855469 L 18.3125 398.539062 L 290.847656 0.0585938 L 550.105469 177.378906 Z M 277.570312 575.855469 " clip-rule="nonzero"/></clipPath><clipPath id="dc799e3f68"><path d="M 277.570312 575.855469 L 18.3125 398.539062 L 290.847656 0.0585938 L 550.105469 177.378906 Z M 277.570312 575.855469 " clip-rule="nonzero"/></clipPath><clipPath id="ee9035642c"><path d="M 86 301 L 178 301 L 178 370 L 86 370 Z M 86 301 " clip-rule="nonzero"/></clipPath><clipPath id="29e5cecf84"><path d="M 277.570312 575.855469 L 18.3125 398.539062 L 290.847656 0.0585938 L 550.105469 177.378906 Z M 277.570312 575.855469 " clip-rule="nonzero"/></clipPath><clipPath id="7b42b5cc1d"><path d="M 277.570312 575.855469 L 18.3125 398.539062 L 290.847656 0.0585938 L 550.105469 177.378906 Z M 277.570312 575.855469 " clip-rule="nonzero"/></clipPath><clipPath id="5f056bbd01"><path d="M 84 299 L 181 299 L 181 372 L 84 372 Z M 84 299 " clip-rule="nonzero"/></clipPath><clipPath id="ed00fe9942"><path d="M 277.570312 575.855469 L 18.3125 398.539062 L 290.847656 0.0585938 L 550.105469 177.378906 Z M 277.570312 575.855469 " clip-rule="nonzero"/></clipPath><clipPath id="ab40cf4be9"><path d="M 277.570312 575.855469 L 18.3125 398.539062 L 290.847656 0.0585938 L 550.105469 177.378906 Z M 277.570312 575.855469 " clip-rule="nonzero"/></clipPath><clipPath id="eabb469929"><path d="M 92 369 L 176 369 L 176 446 L 92 446 Z M 92 369 " clip-rule="nonzero"/></clipPath><clipPath id="312d77538e"><path d="M 277.570312 575.855469 L 18.3125 398.539062 L 290.847656 0.0585938 L 550.105469 177.378906 Z M 277.570312 575.855469 " clip-rule="nonzero"/></clipPath><clipPath id="53f64433e5"><path d="M 277.570312 575.855469 L 18.3125 398.539062 L 290.847656 0.0585938 L 550.105469 177.378906 Z M 277.570312 575.855469 " clip-rule="nonzero"/></clipPath><clipPath id="6352c3da8a"><path d="M 90 367 L 178 367 L 178 448 L 90 448 Z M 90 367 " clip-rule="nonzero"/></clipPath><clipPath id="4e9c946d13"><path d="M 277.570312 575.855469 L 18.3125 398.539062 L 290.847656 0.0585938 L 550.105469 177.378906 Z M 277.570312 575.855469 " clip-rule="nonzero"/></clipPath><clipPath id="987205134f"><path d="M 277.570312 575.855469 L 18.3125 398.539062 L 290.847656 0.0585938 L 550.105469 177.378906 Z M 277.570312 575.855469 " clip-rule="nonzero"/></clipPath><clipPath id="9adb34bd51"><path d="M 247 336 L 315 336 L 315 469 L 247 469 Z M 247 336 " clip-rule="nonzero"/></clipPath><clipPath id="26fda4e561"><path d="M 277.570312 575.855469 L 18.3125 398.539062 L 290.847656 0.0585938 L 550.105469 177.378906 Z M 277.570312 575.855469 " clip-rule="nonzero"/></clipPath><clipPath id="a521aca1e2"><path d="M 277.570312 575.855469 L 18.3125 398.539062 L 290.847656 0.0585938 L 550.105469 177.378906 Z M 277.570312 575.855469 " clip-rule="nonzero"/></clipPath><clipPath id="c7f2ac1d38"><path d="M 244 334 L 317 334 L 317 472 L 244 472 Z M 244 334 " clip-rule="nonzero"/></clipPath><clipPath id="4ce2bb1710"><path d="M 277.570312 575.855469 L 18.3125 398.539062 L 290.847656 0.0585938 L 550.105469 177.378906 Z M 277.570312 575.855469 " clip-rule="nonzero"/></clipPath><clipPath id="a3b3a62ea1"><path d="M 277.570312 575.855469 L 18.3125 398.539062 L 290.847656 0.0585938 L 550.105469 177.378906 Z M 277.570312 575.855469 " clip-rule="nonzero"/></clipPath><clipPath id="0f71420e56"><path d="M 363 189 L 443 189 L 443 343 L 363 343 Z M 363 189 " clip-rule="nonzero"/></clipPath><clipPath id="25a4d48c32"><path d="M 277.570312 575.855469 L 18.3125 398.539062 L 290.847656 0.0585938 L 550.105469 177.378906 Z M 277.570312 575.855469 " clip-rule="nonzero"/></clipPath><clipPath id="38f9bb927d"><path d="M 277.570312 575.855469 L 18.3125 398.539062 L 290.847656 0.0585938 L 550.105469 177.378906 Z M 277.570312 575.855469 " clip-rule="nonzero"/></clipPath><clipPath id="65a802e8c3"><path d="M 360 186 L 446 186 L 446 347 L 360 347 Z M 360 186 " clip-rule="nonzero"/></clipPath><clipPath id="c35e255e27"><path d="M 277.570312 575.855469 L 18.3125 398.539062 L 290.847656 0.0585938 L 550.105469 177.378906 Z M 277.570312 575.855469 " clip-rule="nonzero"/></clipPath><clipPath id="d40fa8e96a"><path d="M 277.570312 575.855469 L 18.3125 398.539062 L 290.847656 0.0585938 L 550.105469 177.378906 Z M 277.570312 575.855469 " clip-rule="nonzero"/></clipPath><clipPath id="571c6af6af"><path d="M 234 115 L 399 115 L 399 186 L 234 186 Z M 234 115 " clip-rule="nonzero"/></clipPath><clipPath id="4539c1d256"><path d="M 277.570312 575.855469 L 18.3125 398.539062 L 290.847656 0.0585938 L 550.105469 177.378906 Z M 277.570312 575.855469 " clip-rule="nonzero"/></clipPath><clipPath id="f3add8a20c"><path d="M 277.570312 575.855469 L 18.3125 398.539062 L 290.847656 0.0585938 L 550.105469 177.378906 Z M 277.570312 575.855469 " clip-rule="nonzero"/></clipPath><clipPath id="9815b67037"><path d="M 231 112 L 402 112 L 402 189 L 231 189 Z M 231 112 " clip-rule="nonzero"/></clipPath><clipPath id="03197d00b0"><path d="M 277.570312 575.855469 L 18.3125 398.539062 L 290.847656 0.0585938 L 550.105469 177.378906 Z M 277.570312 575.855469 " clip-rule="nonzero"/></clipPath><clipPath id="1eb459de41"><path d="M 277.570312 575.855469 L 18.3125 398.539062 L 290.847656 0.0585938 L 550.105469 177.378906 Z M 277.570312 575.855469 " clip-rule="nonzero"/></clipPath><clipPath id="16c3248371"><path d="M 172 410 L 199 410 L 199 449 L 172 449 Z M 172 410 " clip-rule="nonzero"/></clipPath><clipPath id="4def8b1da0"><path d="M 277.570312 575.855469 L 18.3125 398.539062 L 290.847656 0.0585938 L 550.105469 177.378906 Z M 277.570312 575.855469 " clip-rule="nonzero"/></clipPath><clipPath id="cff67e5a70"><path d="M 277.570312 575.855469 L 18.3125 398.539062 L 290.847656 0.0585938 L 550.105469 177.378906 Z M 277.570312 575.855469 " clip-rule="nonzero"/></clipPath><clipPath id="4c1138b1f3"><path d="M 167 406 L 203 406 L 203 454 L 167 454 Z M 167 406 " clip-rule="nonzero"/></clipPath><clipPath id="058f3ef02d"><path d="M 277.570312 575.855469 L 18.3125 398.539062 L 290.847656 0.0585938 L 550.105469 177.378906 Z M 277.570312 575.855469 " clip-rule="nonzero"/></clipPath><clipPath id="64997af85f"><path d="M 277.570312 575.855469 L 18.3125 398.539062 L 290.847656 0.0585938 L 550.105469 177.378906 Z M 277.570312 575.855469 " clip-rule="nonzero"/></clipPath><clipPath id="2560b5ac5b"><path d="M 211 415 L 227 415 L 227 449 L 211 449 Z M 211 415 " clip-rule="nonzero"/></clipPath><clipPath id="4ea09d9474"><path d="M 277.570312 575.855469 L 18.3125 398.539062 L 290.847656 0.0585938 L 550.105469 177.378906 Z M 277.570312 575.855469 " clip-rule="nonzero"/></clipPath><clipPath id="0433dc6a69"><path d="M 277.570312 575.855469 L 18.3125 398.539062 L 290.847656 0.0585938 L 550.105469 177.378906 Z M 277.570312 575.855469 " clip-rule="nonzero"/></clipPath><clipPath id="b155c95689"><path d="M 208 412 L 231 412 L 231 452 L 208 452 Z M 208 412 " clip-rule="nonzero"/></clipPath><clipPath id="57a7bc3884"><path d="M 277.570312 575.855469 L 18.3125 398.539062 L 290.847656 0.0585938 L 550.105469 177.378906 Z M 277.570312 575.855469 " clip-rule="nonzero"/></clipPath><clipPath id="dba374fe1f"><path d="M 277.570312 575.855469 L 18.3125 398.539062 L 290.847656 0.0585938 L 550.105469 177.378906 Z M 277.570312 575.855469 " clip-rule="nonzero"/></clipPath><clipPath id="8fe333af8f"><path d="M 234 198 L 282 198 L 282 216 L 234 216 Z M 234 198 " clip-rule="nonzero"/></clipPath><clipPath id="011bfa2bce"><path d="M 277.570312 575.855469 L 18.3125 398.539062 L 290.847656 0.0585938 L 550.105469 177.378906 Z M 277.570312 575.855469 " clip-rule="nonzero"/></clipPath><clipPath id="b477dbea1d"><path d="M 277.570312 575.855469 L 18.3125 398.539062 L 290.847656 0.0585938 L 550.105469 177.378906 Z M 277.570312 575.855469 " clip-rule="nonzero"/></clipPath><clipPath id="b7bf828c7a"><path d="M 229 193 L 287 193 L 287 221 L 229 221 Z M 229 193 " clip-rule="nonzero"/></clipPath><clipPath id="2fe71239a4"><path d="M 277.570312 575.855469 L 18.3125 398.539062 L 290.847656 0.0585938 L 550.105469 177.378906 Z M 277.570312 575.855469 " clip-rule="nonzero"/></clipPath><clipPath id="2e11fd7327"><path d="M 277.570312 575.855469 L 18.3125 398.539062 L 290.847656 0.0585938 L 550.105469 177.378906 Z M 277.570312 575.855469 " clip-rule="nonzero"/></clipPath><clipPath id="2a1ca3a766"><path d="M 334 296 L 370 296 L 370 373 L 334 373 Z M 334 296 " clip-rule="nonzero"/></clipPath><clipPath id="b938f4a0e5"><path d="M 277.570312 575.855469 L 18.3125 398.539062 L 290.847656 0.0585938 L 550.105469 177.378906 Z M 277.570312 575.855469 " clip-rule="nonzero"/></clipPath><clipPath id="d0c178ded5"><path d="M 277.570312 575.855469 L 18.3125 398.539062 L 290.847656 0.0585938 L 550.105469 177.378906 Z M 277.570312 575.855469 " clip-rule="nonzero"/></clipPath><clipPath id="b9090003ed"><path d="M 330 293 L 374 293 L 374 377 L 330 377 Z M 330 293 " clip-rule="nonzero"/></clipPath><clipPath id="634c9a9d0c"><path d="M 277.570312 575.855469 L 18.3125 398.539062 L 290.847656 0.0585938 L 550.105469 177.378906 Z M 277.570312 575.855469 " clip-rule="nonzero"/></clipPath><clipPath id="cb3dec676e"><path d="M 277.570312 575.855469 L 18.3125 398.539062 L 290.847656 0.0585938 L 550.105469 177.378906 Z M 277.570312 575.855469 " clip-rule="nonzero"/></clipPath><clipPath id="c77b8a6f8f"><path d="M 159 279 L 211 279 L 211 318 L 159 318 Z M 159 279 " clip-rule="nonzero"/></clipPath><clipPath id="e9ebfecbca"><path d="M 277.570312 575.855469 L 18.3125 398.539062 L 290.847656 0.0585938 L 550.105469 177.378906 Z M 277.570312 575.855469 " clip-rule="nonzero"/></clipPath><clipPath id="beaf5b7546"><path d="M 277.570312 575.855469 L 18.3125 398.539062 L 290.847656 0.0585938 L 550.105469 177.378906 Z M 277.570312 575.855469 " clip-rule="nonzero"/></clipPath><clipPath id="ada333336f"><path d="M 156 276 L 213 276 L 213 320 L 156 320 Z M 156 276 " clip-rule="nonzero"/></clipPath><clipPath id="fd99459b33"><path d="M 277.570312 575.855469 L 18.3125 398.539062 L 290.847656 0.0585938 L 550.105469 177.378906 Z M 277.570312 575.855469 " clip-rule="nonzero"/></clipPath><clipPath id="31dd6e33b2"><path d="M 277.570312 575.855469 L 18.3125 398.539062 L 290.847656 0.0585938 L 550.105469 177.378906 Z M 277.570312 575.855469 " clip-rule="nonzero"/></clipPath><clipPath id="9320170c9e"><path d="M 676 391 L 689 391 L 689 403 L 676 403 Z M 676 391 " clip-rule="nonzero"/></clipPath><clipPath id="a9deff1c85"><path d="M 751.578125 575.855469 L 492.320312 398.539062 L 764.855469 0.0585938 L 1024.117188 177.378906 Z M 751.578125 575.855469 " clip-rule="nonzero"/></clipPath><clipPath id="750ad2e04e"><path d="M 751.578125 575.855469 L 492.320312 398.539062 L 764.855469 0.0585938 L 1024.117188 177.378906 Z M 751.578125 575.855469 " clip-rule="nonzero"/></clipPath><clipPath id="b6b8a64a77"><path d="M 676 390 L 690 390 L 690 404 L 676 404 Z M 676 390 " clip-rule="nonzero"/></clipPath><clipPath id="4b87ca0caa"><path d="M 751.578125 575.855469 L 492.320312 398.539062 L 764.855469 0.0585938 L 1024.117188 177.378906 Z M 751.578125 575.855469 " clip-rule="nonzero"/></clipPath><clipPath id="5177591e86"><path d="M 751.578125 575.855469 L 492.320312 398.539062 L 764.855469 0.0585938 L 1024.117188 177.378906 Z M 751.578125 575.855469 " clip-rule="nonzero"/></clipPath><clipPath id="af0276de86"><path d="M 786 215 L 802 215 L 802 231 L 786 231 Z M 786 215 " clip-rule="nonzero"/></clipPath><clipPath id="6717c0252b"><path d="M 751.578125 575.855469 L 492.320312 398.539062 L 764.855469 0.0585938 L 1024.117188 177.378906 Z M 751.578125 575.855469 " clip-rule="nonzero"/></clipPath><clipPath id="9f2ed7e5c5"><path d="M 751.578125 575.855469 L 492.320312 398.539062 L 764.855469 0.0585938 L 1024.117188 177.378906 Z M 751.578125 575.855469 " clip-rule="nonzero"/></clipPath><clipPath id="48739da540"><path d="M 785 214 L 803 214 L 803 232 L 785 232 Z M 785 214 " clip-rule="nonzero"/></clipPath><clipPath id="9dd21668c4"><path d="M 751.578125 575.855469 L 492.320312 398.539062 L 764.855469 0.0585938 L 1024.117188 177.378906 Z M 751.578125 575.855469 " clip-rule="nonzero"/></clipPath><clipPath id="83a8fb59d0"><path d="M 751.578125 575.855469 L 492.320312 398.539062 L 764.855469 0.0585938 L 1024.117188 177.378906 Z M 751.578125 575.855469 " clip-rule="nonzero"/></clipPath><clipPath id="d52f3d1ab7"><path d="M 756 228 L 771 228 L 771 244 L 756 244 Z M 756 228 " clip-rule="nonzero"/></clipPath><clipPath id="becd3fafea"><path d="M 751.578125 575.855469 L 492.320312 398.539062 L 764.855469 0.0585938 L 1024.117188 177.378906 Z M 751.578125 575.855469 " clip-rule="nonzero"/></clipPath><clipPath id="366648b9aa"><path d="M 751.578125 575.855469 L 492.320312 398.539062 L 764.855469 0.0585938 L 1024.117188 177.378906 Z M 751.578125 575.855469 " clip-rule="nonzero"/></clipPath><clipPath id="946d31a007"><path d="M 754 227 L 772 227 L 772 245 L 754 245 Z M 754 227 " clip-rule="nonzero"/></clipPath><clipPath id="3c0e733995"><path d="M 751.578125 575.855469 L 492.320312 398.539062 L 764.855469 0.0585938 L 1024.117188 177.378906 Z M 751.578125 575.855469 " clip-rule="nonzero"/></clipPath><clipPath id="5ed2ff15cc"><path d="M 751.578125 575.855469 L 492.320312 398.539062 L 764.855469 0.0585938 L 1024.117188 177.378906 Z M 751.578125 575.855469 " clip-rule="nonzero"/></clipPath><clipPath id="0344c9806a"><path d="M 645 96 L 910 96 L 910 373 L 645 373 Z M 645 96 " clip-rule="nonzero"/></clipPath><clipPath id="fe69584deb"><path d="M 751.578125 575.855469 L 492.320312 398.539062 L 764.855469 0.0585938 L 1024.117188 177.378906 Z M 751.578125 575.855469 " clip-rule="nonzero"/></clipPath><clipPath id="2c9e55b68c"><path d="M 751.578125 575.855469 L 492.320312 398.539062 L 764.855469 0.0585938 L 1024.117188 177.378906 Z M 751.578125 575.855469 " clip-rule="nonzero"/></clipPath><clipPath id="be0bcf6ace"><path d="M 641 234 L 770 234 L 770 307 L 641 307 Z M 641 234 " clip-rule="nonzero"/></clipPath><clipPath id="3780269a5b"><path d="M 751.578125 575.855469 L 492.320312 398.539062 L 764.855469 0.0585938 L 1024.117188 177.378906 Z M 751.578125 575.855469 " clip-rule="nonzero"/></clipPath><clipPath id="4cfc1a8058"><path d="M 751.578125 575.855469 L 492.320312 398.539062 L 764.855469 0.0585938 L 1024.117188 177.378906 Z M 751.578125 575.855469 " clip-rule="nonzero"/></clipPath><clipPath id="f4e7a00473"><path d="M 639 232 L 772 232 L 772 310 L 639 310 Z M 639 232 " clip-rule="nonzero"/></clipPath><clipPath id="57ac6b09da"><path d="M 751.578125 575.855469 L 492.320312 398.539062 L 764.855469 0.0585938 L 1024.117188 177.378906 Z M 751.578125 575.855469 " clip-rule="nonzero"/></clipPath><clipPath id="0d6685a0bd"><path d="M 751.578125 575.855469 L 492.320312 398.539062 L 764.855469 0.0585938 L 1024.117188 177.378906 Z M 751.578125 575.855469 " clip-rule="nonzero"/></clipPath><clipPath id="a2f3e935ad"><path d="M 560 301 L 652 301 L 652 370 L 560 370 Z M 560 301 " clip-rule="nonzero"/></clipPath><clipPath id="5e6d404ace"><path d="M 751.578125 575.855469 L 492.320312 398.539062 L 764.855469 0.0585938 L 1024.117188 177.378906 Z M 751.578125 575.855469 " clip-rule="nonzero"/></clipPath><clipPath id="be122c24e8"><path d="M 751.578125 575.855469 L 492.320312 398.539062 L 764.855469 0.0585938 L 1024.117188 177.378906 Z M 751.578125 575.855469 " clip-rule="nonzero"/></clipPath><clipPath id="a5bb700e36"><path d="M 558 299 L 655 299 L 655 372 L 558 372 Z M 558 299 " clip-rule="nonzero"/></clipPath><clipPath id="e6c1093dbf"><path d="M 751.578125 575.855469 L 492.320312 398.539062 L 764.855469 0.0585938 L 1024.117188 177.378906 Z M 751.578125 575.855469 " clip-rule="nonzero"/></clipPath><clipPath id="5733a7024d"><path d="M 751.578125 575.855469 L 492.320312 398.539062 L 764.855469 0.0585938 L 1024.117188 177.378906 Z M 751.578125 575.855469 " clip-rule="nonzero"/></clipPath><clipPath id="06fa7bdfc5"><path d="M 566 369 L 650 369 L 650 446 L 566 446 Z M 566 369 " clip-rule="nonzero"/></clipPath><clipPath id="1f58e9c717"><path d="M 751.578125 575.855469 L 492.320312 398.539062 L 764.855469 0.0585938 L 1024.117188 177.378906 Z M 751.578125 575.855469 " clip-rule="nonzero"/></clipPath><clipPath id="d76c010290"><path d="M 751.578125 575.855469 L 492.320312 398.539062 L 764.855469 0.0585938 L 1024.117188 177.378906 Z M 751.578125 575.855469 " clip-rule="nonzero"/></clipPath><clipPath id="93a098b5c6"><path d="M 564 367 L 652 367 L 652 448 L 564 448 Z M 564 367 " clip-rule="nonzero"/></clipPath><clipPath id="41f5866208"><path d="M 751.578125 575.855469 L 492.320312 398.539062 L 764.855469 0.0585938 L 1024.117188 177.378906 Z M 751.578125 575.855469 " clip-rule="nonzero"/></clipPath><clipPath id="fcc5ca8d09"><path d="M 751.578125 575.855469 L 492.320312 398.539062 L 764.855469 0.0585938 L 1024.117188 177.378906 Z M 751.578125 575.855469 " clip-rule="nonzero"/></clipPath><clipPath id="db1bb44449"><path d="M 721 336 L 789 336 L 789 469 L 721 469 Z M 721 336 " clip-rule="nonzero"/></clipPath><clipPath id="77f7a6251c"><path d="M 751.578125 575.855469 L 492.320312 398.539062 L 764.855469 0.0585938 L 1024.117188 177.378906 Z M 751.578125 575.855469 " clip-rule="nonzero"/></clipPath><clipPath id="65058e4bac"><path d="M 751.578125 575.855469 L 492.320312 398.539062 L 764.855469 0.0585938 L 1024.117188 177.378906 Z M 751.578125 575.855469 " clip-rule="nonzero"/></clipPath><clipPath id="244ca1ca7e"><path d="M 718 334 L 791 334 L 791 472 L 718 472 Z M 718 334 " clip-rule="nonzero"/></clipPath><clipPath id="fd3f338454"><path d="M 751.578125 575.855469 L 492.320312 398.539062 L 764.855469 0.0585938 L 1024.117188 177.378906 Z M 751.578125 575.855469 " clip-rule="nonzero"/></clipPath><clipPath id="5e53f624a6"><path d="M 751.578125 575.855469 L 492.320312 398.539062 L 764.855469 0.0585938 L 1024.117188 177.378906 Z M 751.578125 575.855469 " clip-rule="nonzero"/></clipPath><clipPath id="8821add5c6"><path d="M 837 189 L 917 189 L 917 343 L 837 343 Z M 837 189 " clip-rule="nonzero"/></clipPath><clipPath id="f2fc238963"><path d="M 751.578125 575.855469 L 492.320312 398.539062 L 764.855469 0.0585938 L 1024.117188 177.378906 Z M 751.578125 575.855469 " clip-rule="nonzero"/></clipPath><clipPath id="fad5d6bc19"><path d="M 751.578125 575.855469 L 492.320312 398.539062 L 764.855469 0.0585938 L 1024.117188 177.378906 Z M 751.578125 575.855469 " clip-rule="nonzero"/></clipPath><clipPath id="d4cf361de8"><path d="M 834 186 L 920 186 L 920 347 L 834 347 Z M 834 186 " clip-rule="nonzero"/></clipPath><clipPath id="c807c3367a"><path d="M 751.578125 575.855469 L 492.320312 398.539062 L 764.855469 0.0585938 L 1024.117188 177.378906 Z M 751.578125 575.855469 " clip-rule="nonzero"/></clipPath><clipPath id="43686658ab"><path d="M 751.578125 575.855469 L 492.320312 398.539062 L 764.855469 0.0585938 L 1024.117188 177.378906 Z M 751.578125 575.855469 " clip-rule="nonzero"/></clipPath><clipPath id="717a397c2b"><path d="M 708 115 L 873 115 L 873 186 L 708 186 Z M 708 115 " clip-rule="nonzero"/></clipPath><clipPath id="3d772c445c"><path d="M 751.578125 575.855469 L 492.320312 398.539062 L 764.855469 0.0585938 L 1024.117188 177.378906 Z M 751.578125 575.855469 " clip-rule="nonzero"/></clipPath><clipPath id="f6ec658d93"><path d="M 751.578125 575.855469 L 492.320312 398.539062 L 764.855469 0.0585938 L 1024.117188 177.378906 Z M 751.578125 575.855469 " clip-rule="nonzero"/></clipPath><clipPath id="e16986dbd1"><path d="M 705 112 L 876 112 L 876 189 L 705 189 Z M 705 112 " clip-rule="nonzero"/></clipPath><clipPath id="902d0dd8ea"><path d="M 751.578125 575.855469 L 492.320312 398.539062 L 764.855469 0.0585938 L 1024.117188 177.378906 Z M 751.578125 575.855469 " clip-rule="nonzero"/></clipPath><clipPath id="9d0db3c975"><path d="M 751.578125 575.855469 L 492.320312 398.539062 L 764.855469 0.0585938 L 1024.117188 177.378906 Z M 751.578125 575.855469 " clip-rule="nonzero"/></clipPath><clipPath id="d9510b614c"><path d="M 646 410 L 673 410 L 673 449 L 646 449 Z M 646 410 " clip-rule="nonzero"/></clipPath><clipPath id="bfcf47e5cc"><path d="M 751.578125 575.855469 L 492.320312 398.539062 L 764.855469 0.0585938 L 1024.117188 177.378906 Z M 751.578125 575.855469 " clip-rule="nonzero"/></clipPath><clipPath id="1d0bff29bc"><path d="M 751.578125 575.855469 L 492.320312 398.539062 L 764.855469 0.0585938 L 1024.117188 177.378906 Z M 751.578125 575.855469 " clip-rule="nonzero"/></clipPath><clipPath id="639fece388"><path d="M 641 406 L 677 406 L 677 454 L 641 454 Z M 641 406 " clip-rule="nonzero"/></clipPath><clipPath id="2dc9e4db67"><path d="M 751.578125 575.855469 L 492.320312 398.539062 L 764.855469 0.0585938 L 1024.117188 177.378906 Z M 751.578125 575.855469 " clip-rule="nonzero"/></clipPath><clipPath id="4a906df150"><path d="M 751.578125 575.855469 L 492.320312 398.539062 L 764.855469 0.0585938 L 1024.117188 177.378906 Z M 751.578125 575.855469 " clip-rule="nonzero"/></clipPath><clipPath id="5db6d584e1"><path d="M 686 415 L 701 415 L 701 449 L 686 449 Z M 686 415 " clip-rule="nonzero"/></clipPath><clipPath id="bc1cd7e0c3"><path d="M 751.578125 575.855469 L 492.320312 398.539062 L 764.855469 0.0585938 L 1024.117188 177.378906 Z M 751.578125 575.855469 " clip-rule="nonzero"/></clipPath><clipPath id="a2e4e177b9"><path d="M 751.578125 575.855469 L 492.320312 398.539062 L 764.855469 0.0585938 L 1024.117188 177.378906 Z M 751.578125 575.855469 " clip-rule="nonzero"/></clipPath><clipPath id="b56edc78d3"><path d="M 682 412 L 705 412 L 705 452 L 682 452 Z M 682 412 " clip-rule="nonzero"/></clipPath><clipPath id="4d6bf42ff4"><path d="M 751.578125 575.855469 L 492.320312 398.539062 L 764.855469 0.0585938 L 1024.117188 177.378906 Z M 751.578125 575.855469 " clip-rule="nonzero"/></clipPath><clipPath id="b4594bd3a4"><path d="M 751.578125 575.855469 L 492.320312 398.539062 L 764.855469 0.0585938 L 1024.117188 177.378906 Z M 751.578125 575.855469 " clip-rule="nonzero"/></clipPath><clipPath id="d7031fc636"><path d="M 708 198 L 756 198 L 756 216 L 708 216 Z M 708 198 " clip-rule="nonzero"/></clipPath><clipPath id="43669053d4"><path d="M 751.578125 575.855469 L 492.320312 398.539062 L 764.855469 0.0585938 L 1024.117188 177.378906 Z M 751.578125 575.855469 " clip-rule="nonzero"/></clipPath><clipPath id="169d7d6082"><path d="M 751.578125 575.855469 L 492.320312 398.539062 L 764.855469 0.0585938 L 1024.117188 177.378906 Z M 751.578125 575.855469 " clip-rule="nonzero"/></clipPath><clipPath id="092b1e67cc"><path d="M 703 193 L 761 193 L 761 221 L 703 221 Z M 703 193 " clip-rule="nonzero"/></clipPath><clipPath id="8ce3ac0567"><path d="M 751.578125 575.855469 L 492.320312 398.539062 L 764.855469 0.0585938 L 1024.117188 177.378906 Z M 751.578125 575.855469 " clip-rule="nonzero"/></clipPath><clipPath id="3714c309a7"><path d="M 751.578125 575.855469 L 492.320312 398.539062 L 764.855469 0.0585938 L 1024.117188 177.378906 Z M 751.578125 575.855469 " clip-rule="nonzero"/></clipPath><clipPath id="fb147ce3c4"><path d="M 808 296 L 844 296 L 844 373 L 808 373 Z M 808 296 " clip-rule="nonzero"/></clipPath><clipPath id="fa3591fb2e"><path d="M 751.578125 575.855469 L 492.320312 398.539062 L 764.855469 0.0585938 L 1024.117188 177.378906 Z M 751.578125 575.855469 " clip-rule="nonzero"/></clipPath><clipPath id="2f69e35bee"><path d="M 751.578125 575.855469 L 492.320312 398.539062 L 764.855469 0.0585938 L 1024.117188 177.378906 Z M 751.578125 575.855469 " clip-rule="nonzero"/></clipPath><clipPath id="aa1b34f0e6"><path d="M 804 293 L 848 293 L 848 377 L 804 377 Z M 804 293 " clip-rule="nonzero"/></clipPath><clipPath id="4e3487d93d"><path d="M 751.578125 575.855469 L 492.320312 398.539062 L 764.855469 0.0585938 L 1024.117188 177.378906 Z M 751.578125 575.855469 " clip-rule="nonzero"/></clipPath><clipPath id="57e910558b"><path d="M 751.578125 575.855469 L 492.320312 398.539062 L 764.855469 0.0585938 L 1024.117188 177.378906 Z M 751.578125 575.855469 " clip-rule="nonzero"/></clipPath><clipPath id="c0f132e3f1"><path d="M 633 279 L 685 279 L 685 318 L 633 318 Z M 633 279 " clip-rule="nonzero"/></clipPath><clipPath id="a034e19422"><path d="M 751.578125 575.855469 L 492.320312 398.539062 L 764.855469 0.0585938 L 1024.117188 177.378906 Z M 751.578125 575.855469 " clip-rule="nonzero"/></clipPath><clipPath id="ba7be9475d"><path d="M 751.578125 575.855469 L 492.320312 398.539062 L 764.855469 0.0585938 L 1024.117188 177.378906 Z M 751.578125 575.855469 " clip-rule="nonzero"/></clipPath><clipPath id="065e22a621"><path d="M 630 276 L 687 276 L 687 320 L 630 320 Z M 630 276 " clip-rule="nonzero"/></clipPath><clipPath id="e2d6a252ed"><path d="M 751.578125 575.855469 L 492.320312 398.539062 L 764.855469 0.0585938 L 1024.117188 177.378906 Z M 751.578125 575.855469 " clip-rule="nonzero"/></clipPath><clipPath id="13946f633c"><path d="M 751.578125 575.855469 L 492.320312 398.539062 L 764.855469 0.0585938 L 1024.117188 177.378906 Z M 751.578125 575.855469 " clip-rule="nonzero"/></clipPath></defs><g clip-path="url(#0b5512a268)"></g><g clip-path="url(#c73becb851)"><g clip-path="url(#62709fe259)"><g clip-path="url(#5ef76f31a9)"><path fill="#b4b4b4" d="M 203.957031 393.886719 C 204.167969 393.578125 204.40625 393.292969 204.671875 393.03125 C 204.9375 392.769531 205.226562 392.539062 205.539062 392.332031 C 205.851562 392.128906 206.183594 391.957031 206.527344 391.820312 C 206.875 391.679688 207.230469 391.578125 207.597656 391.507812 C 207.964844 391.4375 208.335938 391.40625 208.707031 391.410156 C 209.082031 391.414062 209.453125 391.453125 209.816406 391.53125 C 210.183594 391.609375 210.535156 391.71875 210.878906 391.867188 C 211.222656 392.011719 211.546875 392.191406 211.855469 392.402344 C 212.164062 392.613281 212.449219 392.851562 212.710938 393.117188 C 212.972656 393.386719 213.203125 393.675781 213.40625 393.988281 C 213.613281 394.300781 213.78125 394.628906 213.921875 394.976562 C 214.0625 395.320312 214.164062 395.679688 214.234375 396.046875 C 214.304688 396.414062 214.335938 396.78125 214.332031 397.15625 C 214.328125 397.527344 214.285156 397.898438 214.210938 398.261719 C 214.132812 398.628906 214.023438 398.984375 213.875 399.324219 C 213.730469 399.667969 213.550781 399.996094 213.339844 400.304688 C 213.128906 400.609375 212.890625 400.894531 212.621094 401.15625 C 212.355469 401.417969 212.066406 401.648438 211.753906 401.855469 C 211.441406 402.058594 211.113281 402.230469 210.765625 402.367188 C 210.417969 402.507812 210.0625 402.613281 209.695312 402.679688 C 209.328125 402.75 208.960938 402.78125 208.585938 402.777344 C 208.210938 402.773438 207.84375 402.734375 207.476562 402.65625 C 207.113281 402.582031 206.757812 402.46875 206.414062 402.320312 C 206.070312 402.175781 205.746094 401.996094 205.4375 401.785156 C 205.128906 401.574219 204.847656 401.335938 204.585938 401.070312 C 204.324219 400.804688 204.089844 400.511719 203.886719 400.199219 C 203.683594 399.886719 203.511719 399.558594 203.371094 399.210938 C 203.234375 398.867188 203.128906 398.507812 203.0625 398.144531 C 202.992188 397.777344 202.960938 397.40625 202.964844 397.03125 C 202.96875 396.660156 203.007812 396.289062 203.085938 395.925781 C 203.160156 395.558594 203.273438 395.207031 203.417969 394.863281 C 203.566406 394.519531 203.746094 394.191406 203.957031 393.886719 Z M 203.957031 393.886719 " fill-opacity="1" fill-rule="nonzero"/></g></g></g><g clip-path="url(#75b16029f0)"><g clip-path="url(#e6c07239a2)"><g clip-path="url(#af0793810c)"><path fill="#b4b4b4" d="M 212.46875 391.507812 C 213.136719 391.96875 213.585938 392.273438 214.101562 392.953125 C 215.136719 394.316406 215.644531 395.976562 215.394531 397.773438 C 215.148438 399.574219 214.082031 401.136719 212.714844 402.171875 C 209.835938 404.464844 205.636719 403.890625 203.5 400.785156 C 201.203125 397.90625 201.78125 393.710938 204.882812 391.570312 C 207.152344 390.167969 210.234375 389.980469 212.46875 391.507812 Z M 206.050781 400.890625 C 207.613281 401.960938 209.941406 401.914062 211.457031 400.65625 C 212.292969 399.914062 213.058594 398.796875 213.222656 397.597656 C 213.386719 396.398438 212.949219 395.117188 212.363281 394.058594 C 210.808594 392.015625 207.8125 391.601562 205.988281 393.308594 C 203.945312 394.859375 203.53125 397.859375 205.238281 399.679688 C 205.53125 400.210938 205.828125 400.738281 206.050781 400.890625 Z M 206.050781 400.890625 " fill-opacity="1" fill-rule="nonzero"/></g></g></g><g clip-path="url(#81805cc212)"><g clip-path="url(#4b14ec3e05)"><g clip-path="url(#965ce310ff)"><path fill="#b4b4b4" d="M 313.847656 218.828125 C 314.117188 218.433594 314.421875 218.066406 314.765625 217.730469 C 315.109375 217.394531 315.480469 217.097656 315.882812 216.835938 C 316.285156 216.574219 316.710938 216.351562 317.15625 216.171875 C 317.601562 215.996094 318.058594 215.859375 318.53125 215.773438 C 319 215.683594 319.476562 215.640625 319.957031 215.648438 C 320.4375 215.652344 320.910156 215.703125 321.382812 215.804688 C 321.851562 215.902344 322.304688 216.046875 322.746094 216.234375 C 323.1875 216.421875 323.609375 216.652344 324.003906 216.921875 C 324.398438 217.195312 324.765625 217.5 325.101562 217.84375 C 325.4375 218.1875 325.734375 218.558594 326 218.960938 C 326.261719 219.363281 326.480469 219.785156 326.660156 220.230469 C 326.839844 220.675781 326.972656 221.136719 327.0625 221.605469 C 327.148438 222.078125 327.191406 222.554688 327.1875 223.035156 C 327.179688 223.515625 327.128906 223.988281 327.03125 224.457031 C 326.929688 224.929688 326.789062 225.382812 326.601562 225.824219 C 326.410156 226.265625 326.179688 226.683594 325.910156 227.082031 C 325.640625 227.476562 325.332031 227.84375 324.988281 228.179688 C 324.648438 228.515625 324.273438 228.8125 323.871094 229.074219 C 323.472656 229.335938 323.046875 229.558594 322.601562 229.738281 C 322.15625 229.914062 321.699219 230.050781 321.226562 230.136719 C 320.753906 230.226562 320.277344 230.269531 319.800781 230.261719 C 319.320312 230.257812 318.84375 230.207031 318.375 230.105469 C 317.90625 230.007812 317.449219 229.863281 317.007812 229.675781 C 316.566406 229.488281 316.148438 229.257812 315.753906 228.988281 C 315.355469 228.714844 314.992188 228.410156 314.65625 228.066406 C 314.320312 227.722656 314.019531 227.351562 313.757812 226.949219 C 313.496094 226.546875 313.273438 226.125 313.097656 225.679688 C 312.917969 225.234375 312.785156 224.773438 312.695312 224.304688 C 312.605469 223.832031 312.566406 223.355469 312.570312 222.875 C 312.574219 222.394531 312.628906 221.921875 312.726562 221.453125 C 312.824219 220.980469 312.96875 220.527344 313.15625 220.085938 C 313.34375 219.644531 313.574219 219.226562 313.847656 218.828125 Z M 313.847656 218.828125 " fill-opacity="1" fill-rule="nonzero"/></g></g></g><g clip-path="url(#9f9095db89)"><g clip-path="url(#8fc58f1c71)"><g clip-path="url(#3f957ae832)"><path fill="#b4b4b4" d="M 324.617188 216.027344 C 325.0625 216.335938 325.507812 216.640625 325.804688 217.167969 C 327.285156 218.839844 328.238281 220.800781 328.285156 223.128906 C 328.332031 225.457031 327.558594 227.550781 325.734375 229.257812 C 322.464844 232.597656 317.058594 232.832031 313.648438 229.1875 C 312.167969 227.519531 311.214844 225.554688 311.164062 223.226562 C 311.117188 220.898438 311.894531 218.804688 313.714844 217.101562 C 316.457031 214.054688 321.265625 213.738281 324.617188 216.027344 Z M 316.515625 227.871094 C 318.972656 229.550781 322.207031 229.140625 323.957031 227.058594 C 325.097656 225.871094 325.792969 224.375 325.734375 223.023438 C 325.828125 221.449219 325.167969 220.015625 323.980469 218.875 C 321.605469 216.59375 317.925781 216.699219 315.644531 219.074219 C 314.503906 220.261719 313.8125 221.757812 313.871094 223.109375 C 313.929688 224.460938 314.433594 226.117188 315.621094 227.257812 C 315.847656 227.410156 316.070312 227.566406 316.515625 227.871094 Z M 316.515625 227.871094 " fill-opacity="1" fill-rule="nonzero"/></g></g></g><g clip-path="url(#91ac33e8d2)"><g clip-path="url(#f3776f1a3b)"><g clip-path="url(#7d87da7feb)"><path fill="#b4b4b4" d="M 283.359375 231.757812 C 283.632812 231.359375 283.9375 230.996094 284.28125 230.660156 C 284.625 230.324219 284.996094 230.023438 285.398438 229.761719 C 285.800781 229.5 286.222656 229.277344 286.667969 229.101562 C 287.113281 228.921875 287.574219 228.789062 288.042969 228.699219 C 288.515625 228.609375 288.992188 228.570312 289.472656 228.574219 C 289.953125 228.578125 290.425781 228.632812 290.894531 228.730469 C 291.367188 228.828125 291.820312 228.972656 292.261719 229.160156 C 292.703125 229.347656 293.121094 229.578125 293.519531 229.851562 C 293.914062 230.121094 294.28125 230.429688 294.617188 230.769531 C 294.953125 231.113281 295.25 231.484375 295.511719 231.886719 C 295.777344 232.289062 295.996094 232.714844 296.175781 233.160156 C 296.355469 233.605469 296.488281 234.0625 296.574219 234.535156 C 296.664062 235.007812 296.707031 235.480469 296.699219 235.960938 C 296.695312 236.441406 296.644531 236.917969 296.546875 237.386719 C 296.445312 237.855469 296.304688 238.3125 296.113281 238.753906 C 295.925781 239.191406 295.695312 239.613281 295.425781 240.007812 C 295.15625 240.402344 294.847656 240.769531 294.503906 241.105469 C 294.160156 241.441406 293.789062 241.742188 293.386719 242.003906 C 292.984375 242.265625 292.5625 242.484375 292.117188 242.664062 C 291.671875 242.84375 291.210938 242.976562 290.742188 243.066406 C 290.269531 243.152344 289.792969 243.195312 289.3125 243.191406 C 288.835938 243.183594 288.359375 243.132812 287.890625 243.035156 C 287.421875 242.9375 286.964844 242.792969 286.523438 242.605469 C 286.082031 242.414062 285.664062 242.1875 285.265625 241.914062 C 284.871094 241.644531 284.503906 241.335938 284.167969 240.992188 C 283.835938 240.652344 283.535156 240.277344 283.273438 239.875 C 283.011719 239.476562 282.789062 239.050781 282.609375 238.605469 C 282.433594 238.160156 282.296875 237.703125 282.210938 237.230469 C 282.121094 236.757812 282.078125 236.28125 282.085938 235.804688 C 282.089844 235.324219 282.140625 234.847656 282.242188 234.378906 C 282.339844 233.910156 282.484375 233.453125 282.671875 233.011719 C 282.859375 232.570312 283.089844 232.152344 283.359375 231.757812 Z M 283.359375 231.757812 " fill-opacity="1" fill-rule="nonzero"/></g></g></g><g clip-path="url(#1ae3e46b02)"><g clip-path="url(#3ae409e052)"><g clip-path="url(#0a077a8817)"><path fill="#b4b4b4" d="M 294.28125 228.734375 C 294.730469 229.039062 295.175781 229.34375 295.46875 229.875 C 296.953125 231.542969 297.90625 233.503906 297.953125 235.832031 C 298 238.160156 297.222656 240.253906 295.402344 241.960938 C 292.132812 245.300781 286.726562 245.535156 283.316406 241.890625 C 281.832031 240.222656 280.882812 238.257812 280.832031 235.929688 C 280.785156 233.601562 281.5625 231.511719 283.382812 229.804688 C 286.121094 226.757812 290.929688 226.441406 294.28125 228.734375 Z M 286.03125 240.796875 C 288.488281 242.480469 291.722656 242.066406 293.472656 239.984375 C 294.613281 238.796875 295.308594 237.304688 295.25 235.953125 C 295.34375 234.375 294.683594 232.941406 293.496094 231.800781 C 291.121094 229.519531 287.441406 229.628906 285.160156 232.003906 C 284.019531 233.191406 283.324219 234.683594 283.386719 236.035156 C 283.445312 237.386719 283.949219 239.046875 285.136719 240.1875 C 285.359375 240.339844 285.585938 240.492188 286.03125 240.796875 Z M 286.03125 240.796875 " fill-opacity="1" fill-rule="nonzero"/></g></g></g><g clip-path="url(#f2497bb19c)"><g clip-path="url(#108cc2066e)"><g clip-path="url(#0f618a2566)"><path fill="#545454" d="M 433.082031 97.714844 C 435.539062 99.398438 436.175781 102.78125 434.492188 105.242188 C 415.699219 132.722656 399.242188 159.179688 383.175781 184.589844 C 323.863281 279.460938 277.105469 354.058594 177.402344 372.773438 C 174.394531 373.339844 171.710938 371.503906 171.148438 368.496094 C 170.582031 365.484375 172.414062 362.804688 175.425781 362.238281 C 270.234375 344.445312 313.703125 275.136719 373.933594 178.925781 C 389.777344 153.359375 406.457031 127.054688 425.558594 99.128906 C 427.238281 96.671875 430.625 96.035156 433.082031 97.714844 Z M 433.082031 97.714844 " fill-opacity="1" fill-rule="nonzero"/></g></g></g><g clip-path="url(#bdfdc61be5)"><g clip-path="url(#0569d2cc0a)"><g clip-path="url(#014666e64d)"><path fill="#545454" d="M 168.171875 239.550781 C 170.949219 246.039062 208.613281 330.5 295.09375 299.464844 L 294.648438 299.160156 L 294.871094 299.3125 C 263.6875 213.054688 175.109375 237.078125 168.171875 239.550781 L 167.949219 239.394531 C 167.796875 239.621094 167.949219 239.394531 168.171875 239.550781 C 167.949219 239.394531 167.949219 239.394531 167.949219 239.394531 Z M 168.171875 239.550781 " fill-opacity="1" fill-rule="nonzero"/></g></g></g><g clip-path="url(#494ec4d311)"><g clip-path="url(#e9ee63d203)"><g clip-path="url(#dc799e3f68)"><path fill="#545454" d="M 260.566406 248.304688 C 276.875 259.457031 289.210938 276.421875 297.210938 298.289062 C 297.503906 298.820312 297.574219 299.195312 297.492188 299.796875 C 297.480469 300.769531 296.71875 301.886719 295.8125 302.253906 C 263.316406 313.804688 233.769531 310.976562 208.300781 293.554688 C 182.382812 275.832031 169.113281 248.71875 166.042969 241.703125 C 166.042969 241.703125 166.042969 241.703125 165.820312 241.546875 C 164.855469 240.5625 164.796875 239.207031 165.5625 238.089844 C 166.171875 237.199219 167.078125 236.832031 168.277344 236.996094 C 175.8125 234.609375 222.582031 222.324219 260.566406 248.304688 Z M 291.507812 297.996094 C 283.863281 278.011719 272.632812 262.785156 257.664062 252.546875 C 224.148438 229.628906 182.90625 238.148438 171.980469 241.171875 C 176.15625 249.929688 188.71875 273.277344 211.507812 288.863281 C 234.589844 304.980469 261.65625 308.078125 291.507812 297.996094 Z M 291.507812 297.996094 " fill-opacity="1" fill-rule="nonzero"/></g></g></g><g clip-path="url(#ee9035642c)"><g clip-path="url(#29e5cecf84)"><g clip-path="url(#7b42b5cc1d)"><path fill="#545454" d="M 87.089844 302.480469 C 88.304688 307.898438 105.316406 379.875 177.976562 368.574219 L 177.53125 368.269531 L 177.753906 368.421875 C 166.230469 295.609375 92.886719 301.195312 87.089844 302.480469 C 86.867188 302.328125 87.019531 302.101562 87.089844 302.480469 C 86.867188 302.328125 86.867188 302.328125 87.089844 302.480469 Z M 87.089844 302.480469 " fill-opacity="1" fill-rule="nonzero"/></g></g></g><g clip-path="url(#5f056bbd01)"><g clip-path="url(#ed00fe9942)"><g clip-path="url(#ab40cf4be9)"><path fill="#545454" d="M 148.363281 314.542969 C 165.34375 326.15625 176.09375 344.003906 179.71875 367.46875 C 180.011719 368 180.082031 368.375 180 368.976562 C 179.765625 369.796875 179.082031 370.316406 178.179688 370.679688 C 156.0625 374.246094 137.039062 370.417969 121.175781 359.566406 C 95.035156 341.6875 86.328125 309.828125 84.976562 303.65625 C 84.457031 302.972656 84.246094 301.84375 84.855469 300.949219 C 85.46875 300.058594 86.375 299.691406 87.421875 300.082031 C 92.757812 299.46875 123.117188 297.277344 148.363281 314.542969 Z M 175.449219 366.519531 C 171.578125 344.851562 161.710938 328.589844 146.070312 317.894531 C 123.953125 302.765625 97.589844 303.429688 89.925781 304.089844 C 92.148438 312.824219 100.984375 340.183594 123.773438 355.769531 C 138.074219 365.550781 155.519531 369.285156 175.449219 366.519531 Z M 175.449219 366.519531 " fill-opacity="1" fill-rule="nonzero"/></g></g></g><g clip-path="url(#eabb469929)"><g clip-path="url(#312d77538e)"><g clip-path="url(#53f64433e5)"><path fill="#545454" d="M 92.457031 445.191406 C 98.085938 445.109375 171.914062 443.132812 175.640625 369.597656 L 175.484375 369.824219 L 175.640625 369.597656 C 101.800781 366.320312 92.675781 439.113281 92.457031 445.191406 C 92.078125 445.261719 92.078125 445.261719 92.457031 445.191406 C 92.300781 445.414062 92.078125 445.261719 92.457031 445.191406 Z M 92.457031 445.191406 " fill-opacity="1" fill-rule="nonzero"/></g></g></g><g clip-path="url(#6352c3da8a)"><g clip-path="url(#4e9c946d13)"><g clip-path="url(#987205134f)"><path fill="#545454" d="M 176.859375 367.8125 C 177.53125 368.269531 177.824219 368.800781 177.8125 369.773438 C 176.242188 400.839844 161.703125 424.015625 135.722656 437.070312 C 116.992188 446.234375 98.132812 447.4375 93.101562 447.601562 C 92.949219 447.824219 92.726562 447.671875 92.726562 447.671875 C 92.351562 447.742188 91.972656 447.8125 91.75 447.660156 C 91.75 447.660156 91.597656 447.886719 91.597656 447.886719 C 91.375 447.730469 91.222656 447.957031 90.996094 447.800781 C 90.773438 447.648438 90.703125 447.273438 90.703125 447.273438 L 90.550781 447.496094 C 90.550781 447.496094 90.398438 447.71875 90.398438 447.71875 C 90.398438 447.71875 90.550781 447.496094 90.550781 447.496094 C 90.328125 447.34375 90.257812 446.96875 90.1875 446.589844 C 90.1875 446.589844 90.117188 446.214844 90.117188 446.214844 C 90.046875 445.839844 89.972656 445.464844 90.128906 445.238281 C 90.28125 445.015625 90.28125 445.015625 90.433594 444.792969 C 90.949219 439.242188 95.070312 408.285156 117.996094 387.234375 C 132.652344 372.992188 151.722656 366.6875 175.0625 367.566406 C 175.589844 367.269531 176.191406 367.351562 176.636719 367.660156 C 176.636719 367.660156 176.636719 367.660156 176.859375 367.8125 Z M 94.734375 442.816406 C 109.234375 442.238281 168.703125 435.359375 173.289062 371.597656 C 151.972656 371.121094 134.183594 376.992188 120.59375 389.667969 C 100.550781 408.425781 95.804688 435.019531 94.734375 442.816406 Z M 94.734375 442.816406 " fill-opacity="1" fill-rule="nonzero"/></g></g></g><g clip-path="url(#9adb34bd51)"><g clip-path="url(#26fda4e561)"><g clip-path="url(#a521aca1e2)"><path fill="#545454" d="M 306.238281 467.773438 C 308.714844 461.273438 340.753906 374.636719 257.195312 336.179688 L 257.488281 336.710938 L 257.417969 336.332031 C 219.035156 420.265625 299.441406 464.765625 306.238281 467.773438 C 306.308594 468.152344 306.308594 468.152344 306.238281 467.773438 C 306.460938 467.929688 306.308594 468.152344 306.238281 467.773438 Z M 306.238281 467.773438 " fill-opacity="1" fill-rule="nonzero"/></g></g></g><g clip-path="url(#c7f2ac1d38)"><g clip-path="url(#4ce2bb1710)"><g clip-path="url(#a3b3a62ea1)"><path fill="#545454" d="M 276.160156 344.890625 C 336.261719 385.996094 313.195312 457.121094 309.082031 468.410156 C 309 469.007812 309.070312 469.386719 308.613281 470.054688 C 308.460938 470.277344 308.460938 470.277344 308.304688 470.503906 C 308.152344 470.726562 307.777344 470.796875 307.625 471.019531 C 307.25 471.089844 307.25 471.089844 306.871094 471.160156 C 306.648438 471.007812 306.496094 471.230469 306.273438 471.078125 C 306.050781 470.925781 305.671875 470.996094 305.449219 470.84375 C 305.226562 470.691406 304.78125 470.386719 304.554688 470.234375 C 302.617188 469.234375 298.511719 467.082031 293.597656 463.722656 C 271.476562 448.59375 223.335938 405.828125 254.867188 336.226562 C 254.949219 335.628906 255.253906 335.183594 255.5625 334.734375 C 256.394531 333.992188 257.371094 334.003906 258.265625 334.617188 C 264.613281 337.320312 270.578125 341.070312 276.160156 344.890625 Z M 304.625 464.378906 C 309.914062 448.972656 326.949219 386.183594 273.105469 349.359375 C 268.636719 346.300781 263.722656 342.941406 258.570312 340.402344 C 230.625 405.238281 275.5 445.113281 296.277344 459.324219 C 299.628906 461.617188 302.683594 463.378906 304.625 464.378906 Z M 304.625 464.378906 " fill-opacity="1" fill-rule="nonzero"/></g></g></g><g clip-path="url(#0f71420e56)"><g clip-path="url(#25a4d48c32)"><g clip-path="url(#38f9bb927d)"><path fill="#545454" d="M 432.878906 342.546875 C 435.746094 334.996094 473.058594 233.933594 375.6875 189.304688 L 375.980469 189.835938 L 375.910156 189.460938 C 331.355469 287.207031 424.660156 339.21875 432.878906 342.546875 L 432.949219 342.921875 C 432.949219 342.921875 432.949219 342.921875 432.878906 342.546875 C 433.101562 342.699219 432.949219 342.921875 432.949219 342.921875 Z M 432.878906 342.546875 " fill-opacity="1" fill-rule="nonzero"/></g></g></g><g clip-path="url(#65a802e8c3)"><g clip-path="url(#c35e255e27)"><g clip-path="url(#d40fa8e96a)"><path fill="#545454" d="M 398.097656 198.730469 C 468.027344 246.5625 440.917969 329.351562 436.03125 342.734375 C 436.101562 343.109375 435.949219 343.332031 435.796875 343.554688 C 435.9375 344.308594 435.785156 344.53125 435.476562 344.976562 C 435.324219 345.203125 435.171875 345.425781 434.796875 345.496094 C 434.644531 345.71875 434.265625 345.789062 433.890625 345.859375 C 433.515625 345.929688 433.207031 346.378906 432.832031 346.449219 C 432.457031 346.519531 432.082031 346.589844 432.082031 346.589844 C 431.855469 346.4375 431.632812 346.285156 431.410156 346.132812 C 430.964844 345.824219 430.738281 345.671875 430.445312 345.144531 C 428.28125 343.992188 423.507812 341.382812 417.699219 337.410156 C 392.003906 319.835938 336.136719 270.148438 372.382812 189.34375 C 372.464844 188.742188 372.851562 187.695312 373.378906 187.402344 C 374.367188 186.4375 375.71875 186.378906 376.765625 186.765625 C 384.609375 190.164062 391.839844 194.453125 398.097656 198.730469 Z M 431.433594 337.949219 C 437.578125 319.851562 458.046875 246.292969 395.265625 203.351562 C 389.902344 199.6875 384.082031 196.6875 377.660156 193.609375 C 345.082031 269.050781 397.390625 315.320312 421.742188 331.976562 C 425.765625 334.726562 429.046875 336.644531 431.433594 337.949219 Z M 431.433594 337.949219 " fill-opacity="1" fill-rule="nonzero"/></g></g></g><g clip-path="url(#571c6af6af)"><g clip-path="url(#4539c1d256)"><g clip-path="url(#f3add8a20c)"><path fill="#545454" d="M 234.988281 151.449219 C 240.980469 146.039062 321.636719 74.621094 398.535156 149.183594 L 397.933594 149.101562 L 398.3125 149.03125 C 323.371094 226 240.84375 157.75 234.988281 151.449219 L 234.609375 151.519531 C 234.386719 151.367188 234.609375 151.519531 234.988281 151.449219 C 234.761719 151.296875 234.609375 151.519531 234.609375 151.519531 Z M 234.988281 151.449219 " fill-opacity="1" fill-rule="nonzero"/></g></g></g><g clip-path="url(#9815b67037)"><g clip-path="url(#03197d00b0)"><g clip-path="url(#1eb459de41)"><path fill="#545454" d="M 381.554688 131.339844 C 388.03125 135.773438 394.277344 141.027344 400.441406 146.878906 C 401.402344 147.867188 401.617188 148.996094 401.074219 150.265625 C 400.839844 151.089844 400.15625 151.605469 399.628906 151.902344 C 337.464844 214.980469 270.898438 180.929688 245.207031 163.359375 C 239.398438 159.382812 235.234375 155.882812 233.375 154.28125 C 232.777344 154.199219 232.257812 153.519531 231.8125 153.214844 C 231.226562 152.15625 231.011719 151.027344 231.625 150.132812 C 231.929688 149.6875 232.234375 149.238281 232.765625 148.945312 C 232.917969 148.722656 233.292969 148.652344 233.445312 148.425781 C 244.144531 139.019531 311.847656 83.664062 381.554688 131.339844 Z M 393.65625 149.128906 C 388.679688 144.414062 383.402344 140.144531 378.039062 136.480469 C 315.257812 93.539062 254.277344 139.066406 239.644531 151.355469 C 241.722656 153.105469 244.699219 155.46875 248.722656 158.21875 C 273.074219 174.875 335.160156 206.84375 393.65625 149.128906 Z M 393.65625 149.128906 " fill-opacity="1" fill-rule="nonzero"/></g></g></g><g clip-path="url(#16c3248371)"><g clip-path="url(#4def8b1da0)"><g clip-path="url(#cff67e5a70)"><path fill="#b4b4b4" d="M 176.15625 433.570312 C 172.875 437.886719 170.242188 444.613281 174.710938 447.667969 C 179.179688 450.726562 184.71875 445.988281 187.550781 441.367188 C 192.453125 433.238281 196.164062 423.972656 198.082031 414.460938 L 197.902344 410.40625 C 189.710938 417.589844 182.5625 425.164062 176.15625 433.570312 Z M 176.15625 433.570312 " fill-opacity="1" fill-rule="nonzero"/></g></g></g><g clip-path="url(#4c1138b1f3)"><g clip-path="url(#058f3ef02d)"><g clip-path="url(#64997af85f)"><path fill="#b4b4b4" d="M 171.980469 431.046875 C 168.925781 435.511719 165.609375 442.757812 168.84375 448.578125 C 171.785156 453.867188 178.535156 454.546875 183.671875 451.832031 C 190.925781 447.9375 194.640625 438.671875 197.578125 431.5 C 200.515625 424.328125 202.925781 417.449219 202.265625 409.78125 C 202.007812 406.324219 197.066406 404.914062 194.5625 407.136719 C 186.371094 414.324219 178.917969 422.34375 171.980469 431.046875 C 168.394531 435.808594 176.214844 441.15625 179.953125 436.171875 C 186.054688 428.207031 193.050781 420.859375 200.492188 413.816406 C 197.796875 412.957031 195.257812 411.875 192.789062 411.171875 C 193.09375 416.957031 190.699219 422.859375 188.535156 427.9375 C 187.066406 431.523438 185.269531 437.507812 182.234375 440.027344 C 181 442.789062 179.273438 442.917969 177.425781 440.34375 C 178.121094 438.851562 178.203125 438.25 179.730469 436.015625 C 183.082031 432.078125 175.039062 426.578125 171.980469 431.046875 Z M 171.980469 431.046875 " fill-opacity="1" fill-rule="nonzero"/></g></g></g><g clip-path="url(#2560b5ac5b)"><g clip-path="url(#4ea09d9474)"><g clip-path="url(#0433dc6a69)"><path fill="#b4b4b4" d="M 225.445312 436.785156 C 227.125 440.558594 228.113281 445.824219 224.566406 447.660156 C 220.789062 449.34375 217.390625 444.722656 215.863281 440.726562 C 213.390625 433.789062 212.203125 426.417969 211.992188 419.058594 L 212.777344 415.988281 C 217.730469 422.652344 221.925781 429.460938 225.445312 436.785156 Z M 225.445312 436.785156 " fill-opacity="1" fill-rule="nonzero"/></g></g></g><g clip-path="url(#b155c95689)"><g clip-path="url(#57a7bc3884)"><g clip-path="url(#dba374fe1f)"><path fill="#b4b4b4" d="M 222.199219 438.171875 C 222.859375 439.605469 223.964844 441.347656 222.449219 442.605469 C 220.777344 444.085938 220.355469 441.828125 219.695312 440.394531 C 218.378906 437.527344 217.742188 434.140625 216.953125 430.976562 C 216.105469 426.464844 214.964844 421.417969 216.292969 417.082031 C 214.035156 417.503906 212.15625 417.859375 209.898438 418.28125 C 214.777344 424.570312 218.753906 431.226562 222.199219 438.171875 C 224.175781 442.476562 230.972656 439.253906 228.84375 435.171875 C 225.101562 427.695312 220.832031 420.511719 215.65625 413.695312 C 213.882812 411.496094 210.121094 412.203125 209.261719 414.894531 C 208.003906 419.609375 208.253906 424.042969 209.171875 428.933594 C 210.148438 435.175781 211.558594 442.703125 215.40625 447.628906 C 218.441406 451.34375 223.226562 452.976562 227.316406 449.871094 C 232.089844 446.25 230.664062 439.699219 228.617188 435.019531 C 226.867188 430.871094 220.445312 434.023438 222.199219 438.171875 Z M 222.199219 438.171875 " fill-opacity="1" fill-rule="nonzero"/></g></g></g><g clip-path="url(#8fe333af8f)"><g clip-path="url(#011bfa2bce)"><g clip-path="url(#b477dbea1d)"><path fill="#b4b4b4" d="M 246.78125 214.28125 C 241.007812 213.609375 233.761719 210.296875 234.433594 204.523438 C 235.476562 198.679688 243.519531 197.949219 249.433594 199.371094 C 259.839844 201.894531 269.625 206.292969 278.640625 211.804688 L 281.605469 215.144531 C 269.730469 216.203125 258.171875 215.839844 246.78125 214.28125 Z M 246.78125 214.28125 " fill-opacity="1" fill-rule="nonzero"/></g></g></g><g clip-path="url(#b7bf828c7a)"><g clip-path="url(#2fe71239a4)"><g clip-path="url(#2e11fd7327)"><path fill="#b4b4b4" d="M 247.144531 208.953125 C 243.320312 208.308594 236.464844 203.945312 244.496094 204.191406 C 249.152344 204.097656 254.230469 206.257812 258.417969 207.8125 C 265.144531 210.441406 272.691406 213.3125 277.433594 218.847656 C 278.441406 215.929688 279.453125 213.015625 280.3125 210.324219 C 269.339844 211.019531 258.160156 210.585938 247.144531 208.953125 C 240.546875 208.050781 239.597656 218.550781 246.570312 219.382812 C 258.714844 220.804688 270.648438 221.09375 282.59375 220.410156 C 286.652344 220.234375 287.917969 214.542969 285.472656 211.886719 C 280.289062 206.042969 273.421875 202.65625 266.023438 199.566406 C 257.957031 196.019531 247.421875 191.761719 238.535156 194.210938 C 232.433594 195.941406 227.789062 201.289062 229.660156 208.144531 C 231.449219 215.597656 239.75 218.324219 246.570312 219.382812 C 252.859375 220.734375 253.808594 210.234375 247.144531 208.953125 Z M 247.144531 208.953125 " fill-opacity="1" fill-rule="nonzero"/></g></g></g><g clip-path="url(#2a1ca3a766)"><g clip-path="url(#b938f4a0e5)"><g clip-path="url(#d0c178ded5)"><path fill="#b4b4b4" d="M 340.550781 296.777344 C 340.433594 300.304688 342.683594 332.015625 365.496094 351.882812 C 388.3125 371.746094 315.3125 405.117188 339.855469 298.269531 " fill-opacity="1" fill-rule="nonzero"/></g></g></g><g clip-path="url(#b9090003ed)"><g clip-path="url(#634c9a9d0c)"><g clip-path="url(#cb3dec676e)"><path fill="#b4b4b4" d="M 337.023438 296.660156 C 336.707031 310.546875 342.082031 325.699219 349.152344 337.421875 C 351.726562 341.808594 354.832031 345.898438 358.464844 349.695312 C 360.464844 352.046875 364.191406 354.269531 365.511719 357.136719 C 367.050781 360.15625 366.417969 363.003906 364.359375 365.53125 C 358.574219 372.070312 348.769531 369.625 344.265625 363.265625 C 332.152344 346.457031 338.953125 317.332031 343.148438 299.210938 C 344.101562 294.941406 337.667969 292.839844 336.71875 297.109375 C 332.195312 317.625 325.308594 347.351562 338.445312 366.5 C 344.125 374.976562 354.589844 378.855469 364.03125 374.160156 C 371.660156 370.199219 376.046875 361.390625 371.410156 353.300781 C 368.90625 349.292969 364.886719 346.542969 361.699219 343.050781 C 356.960938 337.515625 353.277344 331.390625 350.5 324.898438 C 346.996094 316.601562 343.890625 306.277344 343.925781 297.117188 C 344.054688 292.613281 337.152344 292.15625 337.023438 296.660156 Z M 337.023438 296.660156 " fill-opacity="1" fill-rule="nonzero"/></g></g></g><g clip-path="url(#c77b8a6f8f)"><g clip-path="url(#e9ebfecbca)"><g clip-path="url(#beaf5b7546)"><path fill="#b4b4b4" d="M 210.265625 317.53125 C 207.574219 316.671875 185.84375 306.730469 177.539062 285.308594 C 169.234375 263.886719 126.304688 307 208.914062 317.589844 " fill-opacity="1" fill-rule="nonzero"/></g></g></g><g clip-path="url(#ada333336f)"><g clip-path="url(#fd99459b33)"><g clip-path="url(#31dd6e33b2)"><path fill="#b4b4b4" d="M 210.972656 315.0625 C 202.222656 312.027344 193.898438 305.023438 188.125 298.121094 C 183.386719 292.585938 181.84375 283.332031 176.117188 278.757812 C 171.058594 274.644531 163.898438 276.960938 159.714844 281.644531 C 154.613281 287.664062 155.566406 295.859375 160.375 301.773438 C 171.253906 315.113281 192.617188 317.921875 208.363281 319.835938 C 211.738281 320.175781 211.949219 315.074219 208.726562 314.507812 C 194.933594 312.617188 174.617188 310.199219 164.621094 298.445312 C 160.621094 293.742188 159.726562 286.898438 165.40625 282.910156 C 173.503906 277.300781 175.847656 288.742188 178.71875 293.65625 C 185.269531 304.695312 196.78125 315.191406 209.269531 319.46875 C 212.476562 321.011719 214.113281 316.222656 210.972656 315.0625 Z M 210.972656 315.0625 " fill-opacity="1" fill-rule="nonzero"/></g></g></g><g clip-path="url(#9320170c9e)"><g clip-path="url(#a9deff1c85)"><g clip-path="url(#750ad2e04e)"><path fill="#b4b4b4" d="M 677.964844 393.886719 C 678.175781 393.578125 678.414062 393.292969 678.679688 393.03125 C 678.945312 392.769531 679.238281 392.539062 679.550781 392.332031 C 679.863281 392.128906 680.191406 391.957031 680.539062 391.820312 C 680.882812 391.679688 681.242188 391.578125 681.605469 391.507812 C 681.972656 391.4375 682.34375 391.40625 682.71875 391.410156 C 683.089844 391.414062 683.460938 391.453125 683.824219 391.53125 C 684.191406 391.609375 684.542969 391.71875 684.886719 391.867188 C 685.230469 392.011719 685.554688 392.191406 685.863281 392.402344 C 686.171875 392.613281 686.457031 392.851562 686.71875 393.117188 C 686.980469 393.386719 687.210938 393.675781 687.414062 393.988281 C 687.621094 394.300781 687.792969 394.628906 687.929688 394.976562 C 688.070312 395.320312 688.171875 395.679688 688.242188 396.046875 C 688.3125 396.414062 688.34375 396.78125 688.339844 397.15625 C 688.335938 397.527344 688.296875 397.898438 688.21875 398.261719 C 688.140625 398.628906 688.03125 398.984375 687.882812 399.324219 C 687.738281 399.667969 687.558594 399.996094 687.347656 400.304688 C 687.136719 400.609375 686.898438 400.894531 686.632812 401.15625 C 686.363281 401.417969 686.074219 401.648438 685.761719 401.855469 C 685.449219 402.058594 685.121094 402.230469 684.773438 402.367188 C 684.425781 402.507812 684.070312 402.613281 683.703125 402.679688 C 683.335938 402.75 682.96875 402.78125 682.59375 402.777344 C 682.222656 402.773438 681.851562 402.734375 681.488281 402.65625 C 681.121094 402.582031 680.765625 402.46875 680.421875 402.320312 C 680.082031 402.175781 679.753906 401.996094 679.445312 401.785156 C 679.136719 401.574219 678.855469 401.335938 678.59375 401.070312 C 678.332031 400.804688 678.097656 400.511719 677.894531 400.199219 C 677.691406 399.886719 677.519531 399.558594 677.378906 399.210938 C 677.242188 398.867188 677.136719 398.507812 677.070312 398.144531 C 677 397.777344 676.96875 397.40625 676.972656 397.03125 C 676.976562 396.660156 677.015625 396.289062 677.09375 395.925781 C 677.167969 395.558594 677.28125 395.207031 677.429688 394.863281 C 677.574219 394.519531 677.753906 394.191406 677.964844 393.886719 Z M 677.964844 393.886719 " fill-opacity="1" fill-rule="nonzero"/></g></g></g><g clip-path="url(#b6b8a64a77)"><g clip-path="url(#4b87ca0caa)"><g clip-path="url(#5177591e86)"><path fill="#b4b4b4" d="M 686.476562 391.507812 C 687.144531 391.96875 687.59375 392.273438 688.109375 392.953125 C 689.144531 394.316406 689.652344 395.976562 689.40625 397.773438 C 689.15625 399.574219 688.089844 401.136719 686.726562 402.171875 C 683.84375 404.464844 679.648438 403.890625 677.507812 400.785156 C 675.214844 397.90625 675.789062 393.710938 678.890625 391.570312 C 681.160156 390.167969 684.242188 389.980469 686.476562 391.507812 Z M 680.058594 400.890625 C 681.621094 401.960938 683.949219 401.914062 685.464844 400.65625 C 686.300781 399.914062 687.066406 398.796875 687.230469 397.597656 C 687.394531 396.398438 686.957031 395.117188 686.371094 394.058594 C 684.816406 392.015625 681.820312 391.601562 679.996094 393.308594 C 677.953125 394.859375 677.542969 397.859375 679.246094 399.679688 C 679.539062 400.210938 679.835938 400.738281 680.058594 400.890625 Z M 680.058594 400.890625 " fill-opacity="1" fill-rule="nonzero"/></g></g></g><g clip-path="url(#af0276de86)"><g clip-path="url(#6717c0252b)"><g clip-path="url(#9f2ed7e5c5)"><path fill="#b4b4b4" d="M 787.855469 218.828125 C 788.125 218.433594 788.433594 218.066406 788.773438 217.730469 C 789.117188 217.394531 789.492188 217.097656 789.890625 216.835938 C 790.292969 216.574219 790.71875 216.351562 791.164062 216.171875 C 791.609375 215.996094 792.066406 215.859375 792.539062 215.773438 C 793.011719 215.683594 793.484375 215.640625 793.964844 215.648438 C 794.445312 215.652344 794.921875 215.703125 795.390625 215.804688 C 795.859375 215.902344 796.316406 216.046875 796.757812 216.234375 C 797.199219 216.421875 797.617188 216.652344 798.011719 216.921875 C 798.410156 217.195312 798.773438 217.5 799.109375 217.84375 C 799.445312 218.1875 799.746094 218.558594 800.007812 218.960938 C 800.269531 219.363281 800.488281 219.785156 800.667969 220.230469 C 800.847656 220.675781 800.980469 221.136719 801.070312 221.605469 C 801.15625 222.078125 801.199219 222.554688 801.195312 223.035156 C 801.1875 223.515625 801.136719 223.988281 801.039062 224.457031 C 800.941406 224.929688 800.796875 225.382812 800.609375 225.824219 C 800.417969 226.265625 800.191406 226.683594 799.917969 227.082031 C 799.648438 227.476562 799.339844 227.84375 799 228.179688 C 798.65625 228.515625 798.28125 228.8125 797.878906 229.074219 C 797.480469 229.335938 797.054688 229.558594 796.609375 229.738281 C 796.164062 229.914062 795.707031 230.050781 795.234375 230.136719 C 794.761719 230.226562 794.289062 230.269531 793.808594 230.261719 C 793.328125 230.257812 792.851562 230.207031 792.382812 230.105469 C 791.914062 230.007812 791.457031 229.863281 791.015625 229.675781 C 790.574219 229.488281 790.15625 229.257812 789.761719 228.988281 C 789.363281 228.714844 789 228.410156 788.664062 228.066406 C 788.328125 227.722656 788.027344 227.351562 787.765625 226.949219 C 787.503906 226.546875 787.285156 226.125 787.105469 225.679688 C 786.925781 225.234375 786.792969 224.773438 786.703125 224.304688 C 786.613281 223.832031 786.574219 223.355469 786.578125 222.875 C 786.582031 222.394531 786.636719 221.921875 786.734375 221.453125 C 786.832031 220.980469 786.976562 220.527344 787.164062 220.085938 C 787.351562 219.644531 787.582031 219.226562 787.855469 218.828125 Z M 787.855469 218.828125 " fill-opacity="1" fill-rule="nonzero"/></g></g></g><g clip-path="url(#48739da540)"><g clip-path="url(#9dd21668c4)"><g clip-path="url(#83a8fb59d0)"><path fill="#b4b4b4" d="M 798.625 216.027344 C 799.070312 216.335938 799.515625 216.640625 799.8125 217.167969 C 801.292969 218.839844 802.246094 220.800781 802.292969 223.128906 C 802.339844 225.457031 801.566406 227.550781 799.742188 229.257812 C 796.476562 232.597656 791.066406 232.832031 787.65625 229.1875 C 786.175781 227.519531 785.222656 225.554688 785.175781 223.226562 C 785.125 220.898438 785.902344 218.804688 787.722656 217.101562 C 790.464844 214.054688 795.273438 213.738281 798.625 216.027344 Z M 790.523438 227.871094 C 792.980469 229.550781 796.214844 229.140625 797.96875 227.058594 C 799.105469 225.871094 799.800781 224.375 799.742188 223.023438 C 799.835938 221.449219 799.175781 220.015625 797.988281 218.875 C 795.613281 216.59375 791.933594 216.699219 789.652344 219.074219 C 788.511719 220.261719 787.820312 221.757812 787.878906 223.109375 C 787.9375 224.460938 788.441406 226.117188 789.632812 227.257812 C 789.855469 227.410156 790.078125 227.566406 790.523438 227.871094 Z M 790.523438 227.871094 " fill-opacity="1" fill-rule="nonzero"/></g></g></g><g clip-path="url(#d52f3d1ab7)"><g clip-path="url(#becd3fafea)"><g clip-path="url(#366648b9aa)"><path fill="#b4b4b4" d="M 757.367188 231.757812 C 757.640625 231.359375 757.945312 230.996094 758.289062 230.660156 C 758.632812 230.324219 759.003906 230.023438 759.40625 229.761719 C 759.808594 229.5 760.230469 229.277344 760.675781 229.101562 C 761.121094 228.921875 761.582031 228.789062 762.054688 228.699219 C 762.523438 228.609375 763 228.570312 763.480469 228.574219 C 763.960938 228.578125 764.433594 228.632812 764.90625 228.730469 C 765.375 228.828125 765.828125 228.972656 766.269531 229.160156 C 766.710938 229.347656 767.132812 229.578125 767.527344 229.851562 C 767.921875 230.121094 768.289062 230.429688 768.625 230.769531 C 768.960938 231.113281 769.257812 231.484375 769.523438 231.886719 C 769.785156 232.289062 770.003906 232.714844 770.183594 233.160156 C 770.363281 233.605469 770.496094 234.0625 770.585938 234.535156 C 770.671875 235.007812 770.714844 235.480469 770.710938 235.960938 C 770.703125 236.441406 770.652344 236.917969 770.554688 237.386719 C 770.453125 237.855469 770.3125 238.3125 770.121094 238.753906 C 769.933594 239.191406 769.703125 239.613281 769.433594 240.007812 C 769.164062 240.402344 768.855469 240.769531 768.511719 241.105469 C 768.167969 241.441406 767.796875 241.742188 767.394531 242.003906 C 766.992188 242.265625 766.570312 242.484375 766.125 242.664062 C 765.679688 242.84375 765.222656 242.976562 764.75 243.066406 C 764.277344 243.152344 763.800781 243.195312 763.320312 243.191406 C 762.84375 243.183594 762.367188 243.132812 761.898438 243.035156 C 761.429688 242.9375 760.972656 242.792969 760.53125 242.605469 C 760.089844 242.414062 759.671875 242.1875 759.277344 241.914062 C 758.878906 241.644531 758.511719 241.335938 758.179688 240.992188 C 757.84375 240.652344 757.542969 240.277344 757.28125 239.875 C 757.019531 239.476562 756.796875 239.050781 756.621094 238.605469 C 756.441406 238.160156 756.308594 237.703125 756.21875 237.230469 C 756.128906 236.757812 756.089844 236.28125 756.09375 235.804688 C 756.097656 235.324219 756.152344 234.847656 756.25 234.378906 C 756.347656 233.910156 756.492188 233.453125 756.679688 233.011719 C 756.867188 232.570312 757.097656 232.152344 757.367188 231.757812 Z M 757.367188 231.757812 " fill-opacity="1" fill-rule="nonzero"/></g></g></g><g clip-path="url(#946d31a007)"><g clip-path="url(#3c0e733995)"><g clip-path="url(#5ed2ff15cc)"><path fill="#b4b4b4" d="M 768.292969 228.734375 C 768.738281 229.039062 769.183594 229.34375 769.480469 229.875 C 770.960938 231.542969 771.914062 233.503906 771.960938 235.832031 C 772.007812 238.160156 771.234375 240.253906 769.410156 241.960938 C 766.140625 245.300781 760.734375 245.535156 757.324219 241.890625 C 755.84375 240.222656 754.890625 238.257812 754.839844 235.929688 C 754.792969 233.601562 755.570312 231.511719 757.390625 229.804688 C 760.132812 226.757812 764.941406 226.441406 768.292969 228.734375 Z M 760.039062 240.796875 C 762.496094 242.480469 765.730469 242.066406 767.480469 239.984375 C 768.621094 238.796875 769.316406 237.304688 769.257812 235.953125 C 769.351562 234.375 768.691406 232.941406 767.503906 231.800781 C 765.128906 229.519531 761.449219 229.628906 759.167969 232.003906 C 758.027344 233.191406 757.335938 234.683594 757.394531 236.035156 C 757.453125 237.386719 757.957031 239.046875 759.144531 240.1875 C 759.371094 240.339844 759.59375 240.492188 760.039062 240.796875 Z M 760.039062 240.796875 " fill-opacity="1" fill-rule="nonzero"/></g></g></g><g clip-path="url(#0344c9806a)"><g clip-path="url(#fe69584deb)"><g clip-path="url(#2c9e55b68c)"><path fill="#545454" d="M 907.089844 97.714844 C 909.546875 99.398438 910.183594 102.78125 908.503906 105.242188 C 889.707031 132.722656 873.25 159.179688 857.183594 184.589844 C 797.871094 279.460938 751.113281 354.058594 651.410156 372.773438 C 648.402344 373.339844 645.71875 371.503906 645.15625 368.496094 C 644.589844 365.484375 646.425781 362.804688 649.433594 362.238281 C 744.246094 344.445312 787.710938 275.136719 847.941406 178.925781 C 863.785156 153.359375 880.464844 127.054688 899.566406 99.128906 C 901.246094 96.671875 904.632812 96.035156 907.089844 97.714844 Z M 907.089844 97.714844 " fill-opacity="1" fill-rule="nonzero"/></g></g></g><g clip-path="url(#be0bcf6ace)"><g clip-path="url(#3780269a5b)"><g clip-path="url(#4cfc1a8058)"><path fill="#545454" d="M 642.179688 239.550781 C 644.957031 246.039062 682.621094 330.5 769.105469 299.464844 L 768.65625 299.160156 L 768.878906 299.3125 C 737.695312 213.054688 649.117188 237.078125 642.179688 239.550781 L 641.957031 239.394531 C 641.804688 239.621094 641.957031 239.394531 642.179688 239.550781 C 641.957031 239.394531 641.957031 239.394531 641.957031 239.394531 Z M 642.179688 239.550781 " fill-opacity="1" fill-rule="nonzero"/></g></g></g><g clip-path="url(#f4e7a00473)"><g clip-path="url(#57ac6b09da)"><g clip-path="url(#0d6685a0bd)"><path fill="#545454" d="M 734.574219 248.304688 C 750.882812 259.457031 763.21875 276.421875 771.21875 298.289062 C 771.515625 298.820312 771.585938 299.195312 771.503906 299.796875 C 771.492188 300.769531 770.726562 301.886719 769.820312 302.253906 C 737.324219 313.804688 707.777344 310.976562 682.308594 293.554688 C 656.390625 275.832031 643.125 248.71875 640.054688 241.703125 C 640.054688 241.703125 640.054688 241.703125 639.828125 241.546875 C 638.867188 240.5625 638.804688 239.207031 639.570312 238.089844 C 640.179688 237.199219 641.085938 236.832031 642.285156 236.996094 C 649.824219 234.609375 696.59375 222.324219 734.574219 248.304688 Z M 765.515625 297.996094 C 757.871094 278.011719 746.640625 262.785156 731.671875 252.546875 C 698.15625 229.628906 656.914062 238.148438 645.992188 241.171875 C 650.167969 249.929688 662.726562 273.277344 685.515625 288.863281 C 708.601562 304.980469 735.667969 308.078125 765.515625 297.996094 Z M 765.515625 297.996094 " fill-opacity="1" fill-rule="nonzero"/></g></g></g><g clip-path="url(#a2f3e935ad)"><g clip-path="url(#5e6d404ace)"><g clip-path="url(#be122c24e8)"><path fill="#545454" d="M 561.101562 302.480469 C 562.3125 307.898438 579.328125 379.875 651.988281 368.574219 L 651.539062 368.269531 L 651.761719 368.421875 C 640.238281 295.609375 566.894531 301.195312 561.101562 302.480469 C 560.875 302.328125 561.027344 302.101562 561.101562 302.480469 C 560.875 302.328125 560.875 302.328125 561.101562 302.480469 Z M 561.101562 302.480469 " fill-opacity="1" fill-rule="nonzero"/></g></g></g><g clip-path="url(#a5bb700e36)"><g clip-path="url(#e6c1093dbf)"><g clip-path="url(#5733a7024d)"><path fill="#545454" d="M 622.371094 314.542969 C 639.351562 326.15625 650.101562 344.003906 653.726562 367.46875 C 654.019531 368 654.089844 368.375 654.007812 368.976562 C 653.773438 369.796875 653.09375 370.316406 652.1875 370.679688 C 630.070312 374.246094 611.046875 370.417969 595.183594 359.566406 C 569.042969 341.6875 560.335938 309.828125 558.984375 303.65625 C 558.464844 302.972656 558.253906 301.84375 558.867188 300.949219 C 559.476562 300.058594 560.382812 299.691406 561.429688 300.082031 C 566.765625 299.46875 597.125 297.277344 622.371094 314.542969 Z M 649.457031 366.519531 C 645.585938 344.851562 635.71875 328.589844 620.078125 317.894531 C 597.960938 302.765625 571.597656 303.429688 563.933594 304.089844 C 566.15625 312.824219 574.992188 340.183594 597.78125 355.769531 C 612.082031 365.550781 629.53125 369.285156 649.457031 366.519531 Z M 649.457031 366.519531 " fill-opacity="1" fill-rule="nonzero"/></g></g></g><g clip-path="url(#06fa7bdfc5)"><g clip-path="url(#1f58e9c717)"><g clip-path="url(#d76c010290)"><path fill="#545454" d="M 566.464844 445.191406 C 572.09375 445.109375 645.921875 443.132812 649.648438 369.597656 L 649.496094 369.824219 L 649.648438 369.597656 C 575.808594 366.320312 566.6875 439.113281 566.464844 445.191406 C 566.085938 445.261719 566.085938 445.261719 566.464844 445.191406 C 566.3125 445.414062 566.085938 445.261719 566.464844 445.191406 Z M 566.464844 445.191406 " fill-opacity="1" fill-rule="nonzero"/></g></g></g><g clip-path="url(#93a098b5c6)"><g clip-path="url(#41f5866208)"><g clip-path="url(#fcc5ca8d09)"><path fill="#545454" d="M 650.871094 367.8125 C 651.539062 368.269531 651.832031 368.800781 651.820312 369.773438 C 650.253906 400.839844 635.710938 424.015625 609.730469 437.070312 C 591.003906 446.234375 572.144531 447.4375 567.109375 447.601562 C 566.957031 447.824219 566.734375 447.671875 566.734375 447.671875 C 566.359375 447.742188 565.980469 447.8125 565.757812 447.660156 C 565.757812 447.660156 565.605469 447.886719 565.605469 447.886719 C 565.382812 447.730469 565.230469 447.957031 565.007812 447.800781 C 564.78125 447.648438 564.710938 447.273438 564.710938 447.273438 L 564.558594 447.496094 C 564.558594 447.496094 564.40625 447.71875 564.40625 447.71875 C 564.40625 447.71875 564.558594 447.496094 564.558594 447.496094 C 564.335938 447.34375 564.265625 446.96875 564.195312 446.589844 C 564.195312 446.589844 564.125 446.214844 564.125 446.214844 C 564.054688 445.839844 563.984375 445.464844 564.136719 445.238281 C 564.289062 445.015625 564.289062 445.015625 564.441406 444.792969 C 564.957031 439.242188 569.078125 408.285156 592.003906 387.234375 C 606.660156 372.992188 625.730469 366.6875 649.070312 367.566406 C 649.597656 367.269531 650.199219 367.351562 650.644531 367.660156 C 650.644531 367.660156 650.644531 367.660156 650.871094 367.8125 Z M 568.746094 442.816406 C 583.242188 442.238281 642.710938 435.359375 647.296875 371.597656 C 625.980469 371.121094 608.191406 376.992188 594.601562 389.667969 C 574.558594 408.425781 569.8125 435.019531 568.746094 442.816406 Z M 568.746094 442.816406 " fill-opacity="1" fill-rule="nonzero"/></g></g></g><g clip-path="url(#db1bb44449)"><g clip-path="url(#77f7a6251c)"><g clip-path="url(#65058e4bac)"><path fill="#545454" d="M 780.246094 467.773438 C 782.726562 461.273438 814.761719 374.636719 731.203125 336.179688 L 731.496094 336.710938 L 731.425781 336.332031 C 693.042969 420.265625 773.449219 464.765625 780.246094 467.773438 C 780.316406 468.152344 780.316406 468.152344 780.246094 467.773438 C 780.46875 467.929688 780.316406 468.152344 780.246094 467.773438 Z M 780.246094 467.773438 " fill-opacity="1" fill-rule="nonzero"/></g></g></g><g clip-path="url(#244ca1ca7e)"><g clip-path="url(#fd3f338454)"><g clip-path="url(#5e53f624a6)"><path fill="#545454" d="M 750.171875 344.890625 C 810.269531 385.996094 787.203125 457.121094 783.089844 468.410156 C 783.007812 469.007812 783.078125 469.386719 782.621094 470.054688 C 782.46875 470.277344 782.46875 470.277344 782.316406 470.503906 C 782.160156 470.726562 781.785156 470.796875 781.632812 471.019531 C 781.257812 471.089844 781.257812 471.089844 780.878906 471.160156 C 780.65625 471.007812 780.503906 471.230469 780.28125 471.078125 C 780.058594 470.925781 779.679688 470.996094 779.457031 470.84375 C 779.234375 470.691406 778.789062 470.386719 778.5625 470.234375 C 776.625 469.234375 772.519531 467.082031 767.605469 463.722656 C 745.484375 448.59375 697.34375 405.828125 728.875 336.226562 C 728.957031 335.628906 729.261719 335.183594 729.570312 334.734375 C 730.402344 333.992188 731.378906 334.003906 732.273438 334.617188 C 738.621094 337.320312 744.585938 341.070312 750.171875 344.890625 Z M 778.632812 464.378906 C 783.921875 448.972656 800.957031 386.183594 747.113281 349.359375 C 742.644531 346.300781 737.730469 342.941406 732.578125 340.402344 C 704.632812 405.238281 749.507812 445.113281 770.285156 459.324219 C 773.636719 461.617188 776.695312 463.378906 778.632812 464.378906 Z M 778.632812 464.378906 " fill-opacity="1" fill-rule="nonzero"/></g></g></g><g clip-path="url(#8821add5c6)"><g clip-path="url(#f2fc238963)"><g clip-path="url(#fad5d6bc19)"><path fill="#545454" d="M 906.886719 342.546875 C 909.753906 334.996094 947.066406 233.933594 849.695312 189.304688 L 849.988281 189.835938 L 849.917969 189.460938 C 805.363281 287.207031 898.667969 339.21875 906.886719 342.546875 L 906.957031 342.921875 C 906.957031 342.921875 906.957031 342.921875 906.886719 342.546875 C 907.109375 342.699219 906.957031 342.921875 906.957031 342.921875 Z M 906.886719 342.546875 " fill-opacity="1" fill-rule="nonzero"/></g></g></g><g clip-path="url(#d4cf361de8)"><g clip-path="url(#c807c3367a)"><g clip-path="url(#43686658ab)"><path fill="#545454" d="M 872.105469 198.730469 C 942.035156 246.5625 914.925781 329.351562 910.039062 342.734375 C 910.109375 343.109375 909.957031 343.332031 909.804688 343.554688 C 909.945312 344.308594 909.792969 344.53125 909.484375 344.976562 C 909.332031 345.203125 909.179688 345.425781 908.804688 345.496094 C 908.652344 345.71875 908.273438 345.789062 907.898438 345.859375 C 907.523438 345.929688 907.21875 346.378906 906.839844 346.449219 C 906.464844 346.519531 906.089844 346.589844 906.089844 346.589844 C 905.863281 346.4375 905.640625 346.285156 905.417969 346.132812 C 904.972656 345.824219 904.746094 345.671875 904.453125 345.144531 C 902.289062 343.992188 897.515625 341.382812 891.707031 337.410156 C 866.011719 319.835938 810.144531 270.148438 846.390625 189.34375 C 846.472656 188.742188 846.859375 187.695312 847.390625 187.402344 C 848.375 186.4375 849.730469 186.378906 850.773438 186.765625 C 858.617188 190.164062 865.851562 194.453125 872.105469 198.730469 Z M 905.441406 337.949219 C 911.585938 319.851562 932.054688 246.292969 869.273438 203.351562 C 863.910156 199.6875 858.089844 196.6875 851.671875 193.609375 C 819.089844 269.050781 871.398438 315.320312 895.75 331.976562 C 899.773438 334.726562 903.054688 336.644531 905.441406 337.949219 Z M 905.441406 337.949219 " fill-opacity="1" fill-rule="nonzero"/></g></g></g><g clip-path="url(#717a397c2b)"><g clip-path="url(#3d772c445c)"><g clip-path="url(#f6ec658d93)"><path fill="#545454" d="M 708.996094 151.449219 C 714.992188 146.039062 795.648438 74.621094 872.542969 149.183594 L 871.945312 149.101562 L 872.320312 149.03125 C 797.378906 226 714.851562 157.75 708.996094 151.449219 L 708.617188 151.519531 C 708.394531 151.367188 708.617188 151.519531 708.996094 151.449219 C 708.773438 151.296875 708.617188 151.519531 708.617188 151.519531 Z M 708.996094 151.449219 " fill-opacity="1" fill-rule="nonzero"/></g></g></g><g clip-path="url(#e16986dbd1)"><g clip-path="url(#902d0dd8ea)"><g clip-path="url(#9d0db3c975)"><path fill="#545454" d="M 855.5625 131.339844 C 862.042969 135.773438 868.285156 141.027344 874.449219 146.878906 C 875.410156 147.867188 875.625 148.996094 875.082031 150.265625 C 874.847656 151.089844 874.167969 151.605469 873.636719 151.902344 C 811.472656 214.980469 744.910156 180.929688 719.214844 163.359375 C 713.40625 159.382812 709.242188 155.882812 707.386719 154.28125 C 706.785156 154.199219 706.269531 153.519531 705.820312 153.214844 C 705.234375 152.15625 705.019531 151.027344 705.632812 150.132812 C 705.9375 149.6875 706.242188 149.238281 706.773438 148.945312 C 706.925781 148.722656 707.300781 148.652344 707.453125 148.425781 C 718.152344 139.019531 785.855469 83.664062 855.5625 131.339844 Z M 867.664062 149.128906 C 862.691406 144.414062 857.410156 140.144531 852.046875 136.480469 C 789.265625 93.539062 728.289062 139.066406 713.652344 151.355469 C 715.734375 153.105469 718.707031 155.46875 722.730469 158.21875 C 747.082031 174.875 809.167969 206.84375 867.664062 149.128906 Z M 867.664062 149.128906 " fill-opacity="1" fill-rule="nonzero"/></g></g></g><g clip-path="url(#d9510b614c)"><g clip-path="url(#bfcf47e5cc)"><g clip-path="url(#1d0bff29bc)"><path fill="#b4b4b4" d="M 650.164062 433.570312 C 646.882812 437.886719 644.253906 444.613281 648.71875 447.667969 C 653.1875 450.726562 658.726562 445.988281 661.558594 441.367188 C 666.460938 433.238281 670.175781 423.972656 672.089844 414.460938 L 671.910156 410.40625 C 663.71875 417.589844 656.570312 425.164062 650.164062 433.570312 Z M 650.164062 433.570312 " fill-opacity="1" fill-rule="nonzero"/></g></g></g><g clip-path="url(#639fece388)"><g clip-path="url(#2dc9e4db67)"><g clip-path="url(#4a906df150)"><path fill="#b4b4b4" d="M 645.988281 431.046875 C 642.933594 435.511719 639.621094 442.757812 642.855469 448.578125 C 645.792969 453.867188 652.542969 454.546875 657.679688 451.832031 C 664.933594 447.9375 668.648438 438.671875 671.585938 431.5 C 674.523438 424.328125 676.933594 417.449219 676.273438 409.78125 C 676.015625 406.324219 671.074219 404.914062 668.570312 407.136719 C 660.378906 414.324219 652.925781 422.34375 645.988281 431.046875 C 642.40625 435.808594 650.222656 441.15625 653.960938 436.171875 C 660.0625 428.207031 667.058594 420.859375 674.5 413.816406 C 671.804688 412.957031 669.265625 411.875 666.796875 411.171875 C 667.105469 416.957031 664.707031 422.859375 662.542969 427.9375 C 661.074219 431.523438 659.277344 437.507812 656.242188 440.027344 C 655.011719 442.789062 653.28125 442.917969 651.433594 440.34375 C 652.128906 438.851562 652.210938 438.25 653.738281 436.015625 C 657.089844 432.078125 649.046875 426.578125 645.988281 431.046875 Z M 645.988281 431.046875 " fill-opacity="1" fill-rule="nonzero"/></g></g></g><g clip-path="url(#5db6d584e1)"><g clip-path="url(#bc1cd7e0c3)"><g clip-path="url(#a2e4e177b9)"><path fill="#b4b4b4" d="M 699.453125 436.785156 C 701.132812 440.558594 702.125 445.824219 698.574219 447.660156 C 694.800781 449.34375 691.398438 444.722656 689.871094 440.726562 C 687.402344 433.789062 686.210938 426.417969 686 419.058594 L 686.785156 415.988281 C 691.738281 422.652344 695.9375 429.460938 699.453125 436.785156 Z M 699.453125 436.785156 " fill-opacity="1" fill-rule="nonzero"/></g></g></g><g clip-path="url(#b56edc78d3)"><g clip-path="url(#4d6bf42ff4)"><g clip-path="url(#b4594bd3a4)"><path fill="#b4b4b4" d="M 696.207031 438.171875 C 696.867188 439.605469 697.972656 441.347656 696.457031 442.605469 C 694.785156 444.085938 694.363281 441.828125 693.703125 440.394531 C 692.386719 437.527344 691.75 434.140625 690.960938 430.976562 C 690.117188 426.464844 688.972656 421.417969 690.300781 417.082031 C 688.042969 417.503906 686.164062 417.859375 683.90625 418.28125 C 688.785156 424.570312 692.761719 431.226562 696.207031 438.171875 C 698.183594 442.476562 704.980469 439.253906 702.851562 435.171875 C 699.109375 427.695312 694.839844 420.511719 689.667969 413.695312 C 687.890625 411.496094 684.128906 412.203125 683.269531 414.894531 C 682.011719 419.609375 682.261719 424.042969 683.179688 428.933594 C 684.15625 435.175781 685.566406 442.703125 689.414062 447.628906 C 692.449219 451.34375 697.234375 452.976562 701.324219 449.871094 C 706.097656 446.25 704.671875 439.699219 702.628906 435.019531 C 700.875 430.871094 694.457031 434.023438 696.207031 438.171875 Z M 696.207031 438.171875 " fill-opacity="1" fill-rule="nonzero"/></g></g></g><g clip-path="url(#d7031fc636)"><g clip-path="url(#43669053d4)"><g clip-path="url(#169d7d6082)"><path fill="#b4b4b4" d="M 720.789062 214.28125 C 715.015625 213.609375 707.769531 210.296875 708.441406 204.523438 C 709.484375 198.679688 717.527344 197.949219 723.441406 199.371094 C 733.847656 201.894531 743.632812 206.292969 752.652344 211.804688 L 755.613281 215.144531 C 743.738281 216.203125 732.179688 215.839844 720.789062 214.28125 Z M 720.789062 214.28125 " fill-opacity="1" fill-rule="nonzero"/></g></g></g><g clip-path="url(#092b1e67cc)"><g clip-path="url(#8ce3ac0567)"><g clip-path="url(#3714c309a7)"><path fill="#b4b4b4" d="M 721.152344 208.953125 C 717.328125 208.308594 710.472656 203.945312 718.503906 204.191406 C 723.160156 204.097656 728.242188 206.257812 732.425781 207.8125 C 739.152344 210.441406 746.703125 213.3125 751.441406 218.847656 C 752.453125 215.929688 753.460938 213.015625 754.320312 210.324219 C 743.351562 211.019531 732.167969 210.585938 721.152344 208.953125 C 714.554688 208.050781 713.605469 218.550781 720.578125 219.382812 C 732.722656 220.804688 744.65625 221.09375 756.601562 220.410156 C 760.660156 220.234375 761.925781 214.542969 759.480469 211.886719 C 754.296875 206.042969 747.429688 202.65625 740.03125 199.566406 C 731.964844 196.019531 721.429688 191.761719 712.542969 194.210938 C 706.441406 195.941406 701.796875 201.289062 703.667969 208.144531 C 705.457031 215.597656 713.757812 218.324219 720.578125 219.382812 C 726.867188 220.734375 727.816406 210.234375 721.152344 208.953125 Z M 721.152344 208.953125 " fill-opacity="1" fill-rule="nonzero"/></g></g></g><g clip-path="url(#fb147ce3c4)"><g clip-path="url(#fa3591fb2e)"><g clip-path="url(#2f69e35bee)"><path fill="#b4b4b4" d="M 814.558594 296.777344 C 814.441406 300.304688 816.691406 332.015625 839.507812 351.882812 C 862.320312 371.746094 789.324219 405.117188 813.863281 298.269531 " fill-opacity="1" fill-rule="nonzero"/></g></g></g><g clip-path="url(#aa1b34f0e6)"><g clip-path="url(#4e3487d93d)"><g clip-path="url(#57e910558b)"><path fill="#b4b4b4" d="M 811.03125 296.660156 C 810.714844 310.546875 816.089844 325.699219 823.160156 337.421875 C 825.734375 341.808594 828.839844 345.898438 832.472656 349.695312 C 834.472656 352.046875 838.203125 354.269531 839.519531 357.136719 C 841.058594 360.15625 840.425781 363.003906 838.367188 365.53125 C 832.585938 372.070312 822.777344 369.625 818.273438 363.265625 C 806.160156 346.457031 812.960938 317.332031 817.15625 299.210938 C 818.109375 294.941406 811.675781 292.839844 810.726562 297.109375 C 806.203125 317.625 799.316406 347.351562 812.453125 366.5 C 818.136719 374.976562 828.601562 378.855469 838.039062 374.160156 C 845.671875 370.199219 850.054688 361.390625 845.421875 353.300781 C 842.914062 349.292969 838.894531 346.542969 835.707031 343.050781 C 830.96875 337.515625 827.285156 331.390625 824.511719 324.898438 C 821.003906 316.601562 817.898438 306.277344 817.933594 297.117188 C 818.0625 292.613281 811.160156 292.15625 811.03125 296.660156 Z M 811.03125 296.660156 " fill-opacity="1" fill-rule="nonzero"/></g></g></g><g clip-path="url(#c0f132e3f1)"><g clip-path="url(#a034e19422)"><g clip-path="url(#ba7be9475d)"><path fill="#b4b4b4" d="M 684.277344 317.53125 C 681.582031 316.671875 659.851562 306.730469 651.546875 285.308594 C 643.242188 263.886719 600.3125 307 682.921875 317.589844 " fill-opacity="1" fill-rule="nonzero"/></g></g></g><g clip-path="url(#065e22a621)"><g clip-path="url(#e2d6a252ed)"><g clip-path="url(#13946f633c)"><path fill="#b4b4b4" d="M 684.980469 315.0625 C 676.230469 312.027344 667.90625 305.023438 662.132812 298.121094 C 657.394531 292.585938 655.851562 283.332031 650.125 278.757812 C 645.066406 274.644531 637.90625 276.960938 633.722656 281.644531 C 628.621094 287.664062 629.574219 295.859375 634.386719 301.773438 C 645.261719 315.113281 666.628906 317.921875 682.371094 319.835938 C 685.746094 320.175781 685.957031 315.074219 682.734375 314.507812 C 668.941406 312.617188 648.625 310.199219 638.628906 298.445312 C 634.628906 293.742188 633.734375 286.898438 639.414062 282.910156 C 647.515625 277.300781 649.855469 288.742188 652.726562 293.65625 C 659.277344 304.695312 670.789062 315.191406 683.277344 319.46875 C 686.488281 321.011719 688.121094 316.222656 684.980469 315.0625 Z M 684.980469 315.0625 " fill-opacity="1" fill-rule="nonzero"/></g></g></g></svg>