<?xml version="1.0" encoding="utf-8"?>
<!-- Generator: Adobe Illustrator 24.2.3, SVG Export Plug-In . SVG Version: 6.00 Build 0)  -->
<svg version="1.1" id="Capa_1" xmlns="http://www.w3.org/2000/svg" xmlns:xlink="http://www.w3.org/1999/xlink" x="0px" y="0px"
	 viewBox="0 0 566.9 566.9" style="enable-background:new 0 0 566.9 566.9;" xml:space="preserve">
<style type="text/css">
	.st0{fill:#95C11F;}
	.st1{fill:none;stroke:#FFFFFF;stroke-width:6;stroke-miterlimit:10;stroke-dasharray:4.0031;}
	.st2{fill:none;stroke:#FFFFFF;stroke-width:6;stroke-miterlimit:10;}
	.st3{fill:none;stroke:#FFFFFF;stroke-width:6;stroke-miterlimit:10;stroke-dasharray:17.8055,8.9027;}
	.st4{fill:none;stroke:#FFFFFF;stroke-width:6;stroke-miterlimit:10;stroke-dasharray:3.9938;}
	.st5{fill:#FFFFFF;}
</style>
<path class="st0" d="M479.8,566.9H87.2C39,566.9,0,527.9,0,479.8V87.2C0,39,39,0,87.2,0h392.6c48.1,0,87.2,39,87.2,87.2v392.6
	C566.9,527.9,527.9,566.9,479.8,566.9z"/>
<g>
	<g>
		<g>
			<g>
				<g>
					<path class="st1" d="M202.6,380.4c1.2-0.6,2.4-1.3,3.6-1.9"/>
				</g>
				<g>
					<g>
						<path class="st2" d="M211.6,375.9c3.2-1.5,5.9-2.7,8.2-3.6"/>
						<path class="st3" d="M228.2,369.4c2.4-0.6,3.4-0.6,3.4-0.6c9.3-0.9,9.4,3.2,7.8,7.2c-2.2,5.3-5.8,12.8-6.1,16.4
							c-2,22.5,34.8,23,54.8,17.8c13.2-3.4,3.1-21.7,9.5-27.5c6.8-6.1,37.8-6.3,44.9-0.1c5.7,4.9,6.8,10.3,7.6,14.1
							c1.1,5.1-0.7,21.7,13.6,22c25.3,0.4,63.2-0.4,103.9,0c6.1,0.1,10.5-0.9,13.8-2.4"/>
						<path class="st2" d="M485.3,413.9c3.4-2.6,4.5-5.7,5.1-7.3"/>
					</g>
				</g>
				<g>
					<path class="st4" d="M491.1,403.7c0.4-2.4,0.3-4.4,0.3-3.7"/>
				</g>
			</g>
		</g>
		<g>
			<g>
				<path class="st5" d="M88.2,315.3c0.7,44.3,29,62.6,61.8,62.6c23.5,0,37.6-4.1,49.9-9.3c0.9,3.8,1.8,7.5,2.7,11.3
					c1,4.1,1.9,8.1,2.9,12.2c-11.2,5-32.6,11.2-59.9,11.2c-55.5,0-88.6-36.5-88.6-90.9s32-97.2,84.5-97.2
					c58.8,0,74.5,51.8,74.5,84.9c0,6.7-0.8,11.9-1.1,15.3L88.2,315.3L88.2,315.3z M184.2,291.9c0.4-20.8-8.6-53.2-45.4-53.2
					c-33.1,0-47.7,30.5-50.3,53.2H184.2z"/>
				<path class="st5" d="M469.1,289.2c-1.9-35-4.1-77.1-3.7-108.3h-1.1c-8.6,29.4-19,60.7-31.6,95.3L388.4,398h-24.6l-40.6-119.5
					c-11.9-35.4-22-67.8-29-97.6h-0.7c-0.7,31.3-2.6,73.3-4.9,110.9l-6.7,107.6H251l17.5-251h41.3l42.8,121.4
					c10.4,30.9,19,58.5,25.3,84.5h1.1c6.3-25.3,15.3-52.9,26.4-84.5l44.7-121.4h41.3l15.6,251h-31.6L469.1,289.2z"/>
			</g>
		</g>
	</g>
</g>
</svg>
